<?xml version="1.0" encoding="UTF-8"?>
<!DOCTYPE svg PUBLIC "-//W3C//DTD SVG 1.1//EN"
    "http://www.w3.org/Graphics/SVG/1.1/DTD/svg11.dtd"><svg xmlns="http://www.w3.org/2000/svg" height="600.0000" stroke-opacity="1" viewBox="0.0 0.0 600.0 600.0" font-size="1" width="600.0000" xmlns:xlink="http://www.w3.org/1999/xlink" stroke="rgb(0,0,0)" version="1.1"><defs></defs><g stroke-linejoin="miter" stroke-opacity="1.0" fill-opacity="1.0" stroke="rgb(0,0,0)" stroke-width="2.3999999999999995" fill="rgb(245,245,245)" stroke-linecap="butt" stroke-miterlimit="10.0"><path d="M 572.7273,572.7273 l -0.0000,-545.4545 h -545.4545 l -0.0000,545.4545 Z"/></g><g stroke-linejoin="miter" stroke-opacity="1.0" fill-opacity="0.0" stroke="rgb(0,0,0)" stroke-width="0.0" fill="rgb(0,0,0)" stroke-linecap="butt" stroke-miterlimit="10.0"><path d="M 531.4171,161.6310 v -40.1070 c 0.0000,-2.6581 -2.1548,-4.8128 -4.8128 -4.8128h -40.1070 c -2.6581,-0.0000 -4.8128,2.1548 -4.8128 4.8128v 40.1070 c -0.0000,2.6581 2.1548,4.8128 4.8128 4.8128h 40.1070 c 2.6581,0.0000 4.8128,-2.1548 4.8128 -4.8128Z"/></g><g stroke-linejoin="miter" stroke-opacity="1.0" fill-opacity="1.0" stroke="rgb(0,0,0)" stroke-width="0.0" fill="rgb(0,0,0)" stroke-linecap="butt" stroke-miterlimit="10.0"><path d="M 496.2961,149.1488 ZM 505.4269,148.0161 c -0.3137,0.6796 -0.9932,1.3243 -1.4986 1.3243c -0.8713,-0.0000 -1.2895,-0.7667 -1.7774 -2.3872l -1.2372,-4.1298 l -2.4918,6.3253 c -0.4705,0.0349 -0.9061,0.1046 -1.3069 0.2091l -0.4356,-0.2091 l 3.8510,-7.5800 l -0.2265,-0.7493 c -0.7144,-2.4047 -1.3940,-2.7706 -1.8819 -2.7706c -0.4356,-0.0000 -0.8887,0.1743 -1.2372 0.4356c -0.1272,-0.0418 -0.2596,-0.0732 -0.2962 -0.2962c 0.4531,-0.6622 1.0107,-1.2023 1.6902 -1.2023c 0.5228,-0.0000 1.4986,0.1917 2.1084 2.2478l 1.8645,6.1859 c 0.6796,2.3001 0.8887,2.8577 1.4463 2.8577c 0.3659,-0.0000 0.7144,-0.0871 1.0804 -0.5402c 0.1969,0.0418 0.2910,0.1220 0.3485 0.2788ZM 505.5489,149.1488 ZM 511.7696,149.3230 c -3.7464,-0.0000 -5.5761,-2.5476 -5.5761 -5.5761c 0.0000,-1.8174 0.6900,-3.5234 1.8471 -4.5828c 1.0281,-0.9410 2.2653,-1.4811 3.7464 -1.4811c 2.1433,-0.0000 2.9274,0.6970 3.8161 0.7841c 0.1743,0.9584 0.2962,1.7948 0.3834 2.7009c -0.1969,0.1046 -0.3659,0.1568 -0.5750 0.0871c -0.4531,-1.4986 -1.4114,-2.9274 -3.8161 -2.9274c -0.9061,-0.0000 -1.9168,0.4879 -2.7811 1.5508c -0.6360,0.7824 -1.0351,2.0335 -1.0351 3.5373c 0.0000,2.5441 1.6275,5.1927 3.9729 5.1927c 1.6205,-0.0000 2.8055,-0.5402 4.0426 -1.8993c 0.1917,-0.0000 0.3137,0.1046 0.4008 0.2614c -1.1849,1.5508 -2.7358,2.3524 -4.4260 2.3524Z"/></g><g stroke-linejoin="miter" stroke-opacity="1.0" fill-opacity="0.0" stroke="rgb(0,0,0)" stroke-width="0.0" fill="rgb(0,0,0)" stroke-linecap="butt" stroke-miterlimit="10.0"><path d="M 531.4171,370.1872 v -40.1070 c 0.0000,-2.6581 -2.1548,-4.8128 -4.8128 -4.8128h -40.1070 c -2.6581,-0.0000 -4.8128,2.1548 -4.8128 4.8128v 40.1070 c -0.0000,2.6581 2.1548,4.8128 4.8128 4.8128h 40.1070 c 2.6581,0.0000 4.8128,-2.1548 4.8128 -4.8128Z"/></g><g stroke-linejoin="miter" stroke-opacity="1.0" fill-opacity="1.0" stroke="rgb(0,0,0)" stroke-width="0.0" fill="rgb(0,0,0)" stroke-linecap="butt" stroke-miterlimit="10.0"><path d="M 491.4780,357.7049 ZM 500.6088,356.5723 c -0.3137,0.6796 -0.9932,1.3243 -1.4986 1.3243c -0.8713,-0.0000 -1.2895,-0.7667 -1.7774 -2.3872l -1.2372,-4.1298 l -2.4918,6.3253 c -0.4705,0.0349 -0.9061,0.1046 -1.3069 0.2091l -0.4356,-0.2091 l 3.8510,-7.5800 l -0.2265,-0.7493 c -0.7144,-2.4047 -1.3940,-2.7706 -1.8819 -2.7706c -0.4356,-0.0000 -0.8887,0.1743 -1.2372 0.4356c -0.1272,-0.0418 -0.2596,-0.0732 -0.2962 -0.2962c 0.4531,-0.6622 1.0107,-1.2023 1.6902 -1.2023c 0.5228,-0.0000 1.4986,0.1917 2.1084 2.2478l 1.8645,6.1859 c 0.6796,2.3001 0.8887,2.8577 1.4463 2.8577c 0.3659,-0.0000 0.7144,-0.0871 1.0804 -0.5402c 0.1969,0.0418 0.2910,0.1220 0.3485 0.2788ZM 500.7308,357.7049 ZM 504.0242,348.0514 v 4.0601 c 0.1917,0.0523 0.8887,0.0871 1.3243 0.0871c 1.6902,-0.0000 2.5964,-0.7667 2.5964 -2.6486c 0.0000,-2.2130 -1.2023,-2.6138 -2.4047 -2.6138c -1.2546,-0.0000 -1.5160,0.6099 -1.5160 1.1152ZM 504.0242,348.0514 ZM 502.5430,348.5916 c 0.0000,-1.4463 -0.2962,-1.5334 -1.5160 -1.5857c -0.1046,-0.1046 -0.1046,-0.4705 0.0000 -0.5750c 0.6970,0.0174 1.6083,0.0349 2.2478 0.0349c 0.6970,-0.0000 1.7199,-0.1220 2.3872 -0.1220c 3.2237,-0.0000 3.9032,1.8645 3.9032 2.8926c 0.0000,1.4811 -0.9584,3.5547 -4.1298 3.5547c -0.6099,-0.0000 -1.0281,-0.0523 -1.4114 -0.1743v 2.9623 c 0.0000,1.4463 0.4182,1.5160 1.7774 1.5857c 0.1046,0.1046 0.1046,0.4705 0.0000 0.5750c -0.8713,-0.0174 -1.8924,-0.0349 -2.5092 -0.0349c -0.6221,-0.0000 -1.4811,0.0174 -2.2653 0.0349c -0.1046,-0.1046 -0.1046,-0.4705 0.0000 -0.5750c 1.2198,-0.0523 1.5160,-0.1394 1.5160 -1.5857v -6.9875 ZM 510.1578,357.7049 ZM 521.0311,354.4116 c 0.0000,1.8122 -1.1849,3.4676 -3.3108 3.4676c -0.8887,-0.0000 -1.5857,-0.5402 -1.9690 -1.7948c -0.4705,1.2546 -1.0455,1.7948 -2.0387 1.7948c -1.5683,-0.0000 -2.9623,-1.2720 -2.9623 -3.5547c 0.0000,-2.0562 1.2198,-3.4850 3.1888 -4.3214c 0.1324,0.0697 0.2091,0.2387 0.2265 0.4008c -1.1326,0.7144 -1.9865,1.5334 -1.9865 3.6593c 0.0000,1.9516 0.4705,3.1714 1.7599 3.1714c 0.6447,-0.0000 1.0455,-0.5228 1.5857 -1.7599c -0.2265,-0.5750 -0.2614,-1.2198 -0.2614 -1.5683c 0.0000,-0.5402 0.1917,-1.1501 0.6447 -1.1501c 0.4705,-0.0000 0.5228,0.2265 0.5228 0.6447c 0.0000,0.4182 -0.1568,1.3766 -0.4182 2.0213c 0.5228,1.2023 1.1326,1.8122 1.8296 1.8122c 1.2546,-0.0000 1.7599,-0.6447 1.7599 -2.5615c 0.0000,-1.2720 -0.2962,-2.8926 -2.1084 -4.2692c 0.0174,-0.1411 0.0331,-0.3502 0.2614 -0.4008c 1.6380,0.7841 3.2759,2.3872 3.2759 4.4086Z"/></g><g stroke-linejoin="miter" stroke-opacity="1.0" fill-opacity="0.0" stroke="rgb(0,0,0)" stroke-width="0.0" fill="rgb(0,0,0)" stroke-linecap="butt" stroke-miterlimit="10.0"><path d="M 290.7754,161.6310 v -40.1070 c 0.0000,-2.6581 -2.1548,-4.8128 -4.8128 -4.8128h -40.1070 c -2.6581,-0.0000 -4.8128,2.1548 -4.8128 4.8128v 40.1070 c -0.0000,2.6581 2.1548,4.8128 4.8128 4.8128h 40.1070 c 2.6581,0.0000 4.8128,-2.1548 4.8128 -4.8128Z"/></g><g stroke-linejoin="miter" stroke-opacity="1.0" fill-opacity="1.0" stroke="rgb(0,0,0)" stroke-width="0.0" fill="rgb(0,0,0)" stroke-linecap="butt" stroke-miterlimit="10.0"><path d="M 255.5498,149.1488 ZM 264.6806,148.0161 c -0.3137,0.6796 -0.9932,1.3243 -1.4986 1.3243c -0.8713,-0.0000 -1.2895,-0.7667 -1.7774 -2.3872l -1.2372,-4.1298 l -2.4918,6.3253 c -0.4705,0.0349 -0.9061,0.1046 -1.3069 0.2091l -0.4356,-0.2091 l 3.8510,-7.5800 l -0.2265,-0.7493 c -0.7144,-2.4047 -1.3940,-2.7706 -1.8819 -2.7706c -0.4356,-0.0000 -0.8887,0.1743 -1.2372 0.4356c -0.1272,-0.0418 -0.2596,-0.0732 -0.2962 -0.2962c 0.4531,-0.6622 1.0107,-1.2023 1.6902 -1.2023c 0.5228,-0.0000 1.4986,0.1917 2.1084 2.2478l 1.8645,6.1859 c 0.6796,2.3001 0.8887,2.8577 1.4463 2.8577c 0.3659,-0.0000 0.7144,-0.0871 1.0804 -0.5402c 0.1969,0.0418 0.2910,0.1220 0.3485 0.2788ZM 264.8026,149.1488 ZM 275.6759,145.8554 c 0.0000,1.8122 -1.1849,3.4676 -3.3108 3.4676c -0.8887,-0.0000 -1.5857,-0.5402 -1.9690 -1.7948c -0.4705,1.2546 -1.0455,1.7948 -2.0387 1.7948c -1.5683,-0.0000 -2.9623,-1.2720 -2.9623 -3.5547c 0.0000,-2.0562 1.2198,-3.4850 3.1888 -4.3214c 0.1324,0.0697 0.2091,0.2387 0.2265 0.4008c -1.1326,0.7144 -1.9865,1.5334 -1.9865 3.6593c 0.0000,1.9516 0.4705,3.1714 1.7599 3.1714c 0.6447,-0.0000 1.0455,-0.5228 1.5857 -1.7599c -0.2265,-0.5750 -0.2614,-1.2198 -0.2614 -1.5683c 0.0000,-0.5402 0.1917,-1.1501 0.6447 -1.1501c 0.4705,-0.0000 0.5228,0.2265 0.5228 0.6447c 0.0000,0.4182 -0.1568,1.3766 -0.4182 2.0213c 0.5228,1.2023 1.1326,1.8122 1.8296 1.8122c 1.2546,-0.0000 1.7599,-0.6447 1.7599 -2.5615c 0.0000,-1.2720 -0.2962,-2.8926 -2.1084 -4.2692c 0.0174,-0.1411 0.0331,-0.3502 0.2614 -0.4008c 1.6380,0.7841 3.2759,2.3872 3.2759 4.4086Z"/></g><g stroke-linejoin="miter" stroke-opacity="1.0" fill-opacity="0.0" stroke="rgb(0,0,0)" stroke-width="0.0" fill="rgb(0,0,0)" stroke-linecap="butt" stroke-miterlimit="10.0"><path d="M 366.9786,269.9198 v -48.1283 c 0.0000,-2.6581 -2.1548,-4.8128 -4.8128 -4.8128h -48.1283 c -2.6581,-0.0000 -4.8128,2.1548 -4.8128 4.8128v 48.1283 c -0.0000,2.6581 2.1548,4.8128 4.8128 4.8128h 48.1283 c 2.6581,0.0000 4.8128,-2.1548 4.8128 -4.8128Z"/></g><g stroke-linejoin="miter" stroke-opacity="1.0" fill-opacity="1.0" stroke="rgb(0,0,0)" stroke-width="0.0" fill="rgb(0,0,0)" stroke-linecap="butt" stroke-miterlimit="10.0"><path d="M 320.2466,255.9506 ZM 332.4210,254.4404 c -0.4182,0.9061 -1.3243,1.7658 -1.9981 1.7658c -1.1617,-0.0000 -1.7193,-1.0223 -2.3698 -3.1830l -1.6496,-5.5064 l -3.3224,8.4338 c -0.6273,0.0465 -1.2081,0.1394 -1.7425 0.2788l -0.5808,-0.2788 l 5.1346,-10.1066 l -0.3020,-0.9990 c -0.9526,-3.2062 -1.8587,-3.6941 -2.5092 -3.6941c -0.5808,-0.0000 -1.1849,0.2323 -1.6496 0.5808c -0.1696,-0.0558 -0.3462,-0.0976 -0.3950 -0.3950c 0.6041,-0.8829 1.3475,-1.6031 2.2537 -1.6031c 0.6970,-0.0000 1.9981,0.2556 2.8113 2.9971l 2.4860,8.2479 c 0.9061,3.0668 1.1849,3.8103 1.9284 3.8103c 0.4879,-0.0000 0.9526,-0.1162 1.4405 -0.7202c 0.2625,0.0558 0.3880,0.1626 0.4647 0.3717ZM 332.5836,255.9506 ZM 336.9748,243.0792 v 5.4134 c 0.2556,0.0697 1.1849,0.1162 1.7658 0.1162c 2.2537,-0.0000 3.4618,-1.0223 3.4618 -3.5315c 0.0000,-2.9507 -1.6031,-3.4850 -3.2062 -3.4850c -1.6728,-0.0000 -2.0213,0.8132 -2.0213 1.4869ZM 336.9748,243.0792 ZM 334.9999,243.7994 c 0.0000,-1.9284 -0.3950,-2.0446 -2.0213 -2.1143c -0.1394,-0.1394 -0.1394,-0.6273 0.0000 -0.7667c 0.9293,0.0232 2.1445,0.0465 2.9971 0.0465c 0.9293,-0.0000 2.2932,-0.1626 3.1830 -0.1626c 4.2982,-0.0000 5.2043,2.4860 5.2043 3.8568c 0.0000,1.9749 -1.2778,4.7396 -5.5064 4.7396c -0.8132,-0.0000 -1.3708,-0.0697 -1.8819 -0.2323v 3.9497 c 0.0000,1.9284 0.5576,2.0213 2.3698 2.1143c 0.1394,0.1394 0.1394,0.6273 0.0000 0.7667c -1.1617,-0.0232 -2.5232,-0.0465 -3.3456 -0.0465c -0.8294,-0.0000 -1.9749,0.0232 -3.0204 0.0465c -0.1394,-0.1394 -0.1394,-0.6273 0.0000 -0.7667c 1.6263,-0.0697 2.0213,-0.1859 2.0213 -2.1143v -9.3167 ZM 345.1530,255.9506 ZM 346.5702,245.0773 c 0.0000,-1.3940 1.6031,-3.2992 4.1820 -3.2992c 1.8819,-0.0000 3.9265,1.0223 3.9265 3.5315c 0.0000,1.7658 -0.9990,2.7880 -2.3234 4.0659l -2.3466,2.2537 c -0.1162,0.1162 -1.7193,1.6961 -1.7193 2.8113h 4.1356 c 0.8364,-0.0000 1.2314,-0.5808 1.6263 -2.2304c 0.2323,-0.0465 0.5344,-0.0000 0.6738 0.1162c -0.0232,0.6970 -0.2556,2.4395 -0.5576 3.6709c 0.0000,-0.0000 -1.0687,-0.0465 -1.8122 -0.0465h -4.0659 c -0.7435,-0.0000 -1.9284,0.0465 -1.9284 0.0465c 0.0000,-1.3708 0.3717,-2.4860 2.6486 -4.8093l 1.7193,-1.6961 c 1.3708,-1.3940 1.9052,-2.6022 1.9052 -4.0891c 0.0000,-2.2304 -1.1849,-2.8113 -2.0213 -2.8113c -1.6961,-0.0000 -2.3001,0.8364 -2.3001 1.4172c 0.0000,0.1859 0.1394,0.3950 0.1859 0.5576c 0.0465,0.1626 0.0929,0.3020 0.0929 0.4879c 0.0000,0.5135 -0.6970,0.9293 -1.0920 0.9293c -0.4879,-0.0000 -0.9293,-0.4182 -0.9293 -0.9061Z"/></g><g stroke-linejoin="miter" stroke-opacity="1.0" fill-opacity="0.0" stroke="rgb(0,0,0)" stroke-width="0.0" fill="rgb(0,0,0)" stroke-linecap="butt" stroke-miterlimit="10.0"><path d="M 126.3369,269.9198 v -48.1283 c 0.0000,-2.6581 -2.1548,-4.8128 -4.8128 -4.8128h -48.1283 c -2.6581,-0.0000 -4.8128,2.1548 -4.8128 4.8128v 48.1283 c -0.0000,2.6581 2.1548,4.8128 4.8128 4.8128h 48.1283 c 2.6581,0.0000 4.8128,-2.1548 4.8128 -4.8128Z"/></g><g stroke-linejoin="miter" stroke-opacity="1.0" fill-opacity="1.0" stroke="rgb(0,0,0)" stroke-width="0.0" fill="rgb(0,0,0)" stroke-linecap="butt" stroke-miterlimit="10.0"><path d="M 85.8896,255.9506 ZM 98.0640,254.4404 c -0.4182,0.9061 -1.3243,1.7658 -1.9981 1.7658c -1.1617,-0.0000 -1.7193,-1.0223 -2.3698 -3.1830l -1.6496,-5.5064 l -3.3224,8.4338 c -0.6273,0.0465 -1.2081,0.1394 -1.7425 0.2788l -0.5808,-0.2788 l 5.1346,-10.1066 l -0.3020,-0.9990 c -0.9526,-3.2062 -1.8587,-3.6941 -2.5092 -3.6941c -0.5808,-0.0000 -1.1849,0.2323 -1.6496 0.5808c -0.1696,-0.0558 -0.3462,-0.0976 -0.3950 -0.3950c 0.6041,-0.8829 1.3475,-1.6031 2.2537 -1.6031c 0.6970,-0.0000 1.9981,0.2556 2.8113 2.9971l 2.4860,8.2479 c 0.9061,3.0668 1.1849,3.8103 1.9284 3.8103c 0.4879,-0.0000 0.9526,-0.1162 1.4405 -0.7202c 0.2625,0.0558 0.3880,0.1626 0.4647 0.3717ZM 98.2266,255.9506 ZM 99.6438,245.0773 c 0.0000,-1.3940 1.6031,-3.2992 4.1820 -3.2992c 1.8819,-0.0000 3.9265,1.0223 3.9265 3.5315c 0.0000,1.7658 -0.9990,2.7880 -2.3234 4.0659l -2.3466,2.2537 c -0.1162,0.1162 -1.7193,1.6961 -1.7193 2.8113h 4.1356 c 0.8364,-0.0000 1.2314,-0.5808 1.6263 -2.2304c 0.2323,-0.0465 0.5344,-0.0000 0.6738 0.1162c -0.0232,0.6970 -0.2556,2.4395 -0.5576 3.6709c 0.0000,-0.0000 -1.0687,-0.0465 -1.8122 -0.0465h -4.0659 c -0.7435,-0.0000 -1.9284,0.0465 -1.9284 0.0465c 0.0000,-1.3708 0.3717,-2.4860 2.6486 -4.8093l 1.7193,-1.6961 c 1.3708,-1.3940 1.9052,-2.6022 1.9052 -4.0891c 0.0000,-2.2304 -1.1849,-2.8113 -2.0213 -2.8113c -1.6961,-0.0000 -2.3001,0.8364 -2.3001 1.4172c 0.0000,0.1859 0.1394,0.3950 0.1859 0.5576c 0.0465,0.1626 0.0929,0.3020 0.0929 0.4879c 0.0000,0.5135 -0.6970,0.9293 -1.0920 0.9293c -0.4879,-0.0000 -0.9293,-0.4182 -0.9293 -0.9061Z"/></g><g stroke-linejoin="miter" stroke-opacity="1.0" fill-opacity="0.0" stroke="rgb(0,0,0)" stroke-width="0.0" fill="rgb(0,0,0)" stroke-linecap="butt" stroke-miterlimit="10.0"><path d="M 290.7754,370.1872 v -40.1070 c 0.0000,-2.6581 -2.1548,-4.8128 -4.8128 -4.8128h -40.1070 c -2.6581,-0.0000 -4.8128,2.1548 -4.8128 4.8128v 40.1070 c -0.0000,2.6581 2.1548,4.8128 4.8128 4.8128h 40.1070 c 2.6581,0.0000 4.8128,-2.1548 4.8128 -4.8128Z"/></g><g stroke-linejoin="miter" stroke-opacity="1.0" fill-opacity="1.0" stroke="rgb(0,0,0)" stroke-width="0.0" fill="rgb(0,0,0)" stroke-linecap="butt" stroke-miterlimit="10.0"><path d="M 255.5498,357.7049 ZM 264.6806,356.5723 c -0.3137,0.6796 -0.9932,1.3243 -1.4986 1.3243c -0.8713,-0.0000 -1.2895,-0.7667 -1.7774 -2.3872l -1.2372,-4.1298 l -2.4918,6.3253 c -0.4705,0.0349 -0.9061,0.1046 -1.3069 0.2091l -0.4356,-0.2091 l 3.8510,-7.5800 l -0.2265,-0.7493 c -0.7144,-2.4047 -1.3940,-2.7706 -1.8819 -2.7706c -0.4356,-0.0000 -0.8887,0.1743 -1.2372 0.4356c -0.1272,-0.0418 -0.2596,-0.0732 -0.2962 -0.2962c 0.4531,-0.6622 1.0107,-1.2023 1.6902 -1.2023c 0.5228,-0.0000 1.4986,0.1917 2.1084 2.2478l 1.8645,6.1859 c 0.6796,2.3001 0.8887,2.8577 1.4463 2.8577c 0.3659,-0.0000 0.7144,-0.0871 1.0804 -0.5402c 0.1969,0.0418 0.2910,0.1220 0.3485 0.2788ZM 264.8026,357.7049 ZM 275.6759,354.4116 c 0.0000,1.8122 -1.1849,3.4676 -3.3108 3.4676c -0.8887,-0.0000 -1.5857,-0.5402 -1.9690 -1.7948c -0.4705,1.2546 -1.0455,1.7948 -2.0387 1.7948c -1.5683,-0.0000 -2.9623,-1.2720 -2.9623 -3.5547c 0.0000,-2.0562 1.2198,-3.4850 3.1888 -4.3214c 0.1324,0.0697 0.2091,0.2387 0.2265 0.4008c -1.1326,0.7144 -1.9865,1.5334 -1.9865 3.6593c 0.0000,1.9516 0.4705,3.1714 1.7599 3.1714c 0.6447,-0.0000 1.0455,-0.5228 1.5857 -1.7599c -0.2265,-0.5750 -0.2614,-1.2198 -0.2614 -1.5683c 0.0000,-0.5402 0.1917,-1.1501 0.6447 -1.1501c 0.4705,-0.0000 0.5228,0.2265 0.5228 0.6447c 0.0000,0.4182 -0.1568,1.3766 -0.4182 2.0213c 0.5228,1.2023 1.1326,1.8122 1.8296 1.8122c 1.2546,-0.0000 1.7599,-0.6447 1.7599 -2.5615c 0.0000,-1.2720 -0.2962,-2.8926 -2.1084 -4.2692c 0.0174,-0.1411 0.0331,-0.3502 0.2614 -0.4008c 1.6380,0.7841 3.2759,2.3872 3.2759 4.4086Z"/></g><g stroke-linejoin="miter" stroke-opacity="1.0" fill-opacity="0.0" stroke="rgb(0,0,0)" stroke-width="0.0" fill="rgb(0,0,0)" stroke-linecap="butt" stroke-miterlimit="10.0"><path d="M 366.9786,478.4759 v -48.1283 c 0.0000,-2.6581 -2.1548,-4.8128 -4.8128 -4.8128h -48.1283 c -2.6581,-0.0000 -4.8128,2.1548 -4.8128 4.8128v 48.1283 c -0.0000,2.6581 2.1548,4.8128 4.8128 4.8128h 48.1283 c 2.6581,0.0000 4.8128,-2.1548 4.8128 -4.8128Z"/></g><g stroke-linejoin="miter" stroke-opacity="1.0" fill-opacity="1.0" stroke="rgb(0,0,0)" stroke-width="0.0" fill="rgb(0,0,0)" stroke-linecap="butt" stroke-miterlimit="10.0"><path d="M 325.6484,464.5068 ZM 337.8228,462.9966 c -0.4182,0.9061 -1.3243,1.7658 -1.9981 1.7658c -1.1617,-0.0000 -1.7193,-1.0223 -2.3698 -3.1830l -1.6496,-5.5064 l -3.3224,8.4338 c -0.6273,0.0465 -1.2081,0.1394 -1.7425 0.2788l -0.5808,-0.2788 l 5.1346,-10.1066 l -0.3020,-0.9990 c -0.9526,-3.2062 -1.8587,-3.6941 -2.5092 -3.6941c -0.5808,-0.0000 -1.1849,0.2323 -1.6496 0.5808c -0.1696,-0.0558 -0.3462,-0.0976 -0.3950 -0.3950c 0.6041,-0.8829 1.3475,-1.6031 2.2537 -1.6031c 0.6970,-0.0000 1.9981,0.2556 2.8113 2.9971l 2.4860,8.2479 c 0.9061,3.0668 1.1849,3.8103 1.9284 3.8103c 0.4879,-0.0000 0.9526,-0.1162 1.4405 -0.7202c 0.2625,0.0558 0.3880,0.1626 0.4647 0.3717ZM 337.9854,464.5068 ZM 342.3766,451.6354 v 5.4134 c 0.2556,0.0697 1.1849,0.1162 1.7658 0.1162c 2.2537,-0.0000 3.4618,-1.0223 3.4618 -3.5315c 0.0000,-2.9507 -1.6031,-3.4850 -3.2062 -3.4850c -1.6728,-0.0000 -2.0213,0.8132 -2.0213 1.4869ZM 342.3766,451.6354 ZM 340.4017,452.3556 c 0.0000,-1.9284 -0.3950,-2.0446 -2.0213 -2.1143c -0.1394,-0.1394 -0.1394,-0.6273 0.0000 -0.7667c 0.9293,0.0232 2.1445,0.0465 2.9971 0.0465c 0.9293,-0.0000 2.2932,-0.1626 3.1830 -0.1626c 4.2982,-0.0000 5.2043,2.4860 5.2043 3.8568c 0.0000,1.9749 -1.2778,4.7396 -5.5064 4.7396c -0.8132,-0.0000 -1.3708,-0.0697 -1.8819 -0.2323v 3.9497 c 0.0000,1.9284 0.5576,2.0213 2.3698 2.1143c 0.1394,0.1394 0.1394,0.6273 0.0000 0.7667c -1.1617,-0.0232 -2.5232,-0.0465 -3.3456 -0.0465c -0.8294,-0.0000 -1.9749,0.0232 -3.0204 0.0465c -0.1394,-0.1394 -0.1394,-0.6273 0.0000 -0.7667c 1.6263,-0.0697 2.0213,-0.1859 2.0213 -2.1143v -9.3167 Z"/></g><g stroke-linejoin="miter" stroke-opacity="1.0" fill-opacity="0.0" stroke="rgb(0,0,0)" stroke-width="0.0" fill="rgb(0,0,0)" stroke-linecap="butt" stroke-miterlimit="10.0"><path d="M 126.3369,478.4759 v -48.1283 c 0.0000,-2.6581 -2.1548,-4.8128 -4.8128 -4.8128h -48.1283 c -2.6581,-0.0000 -4.8128,2.1548 -4.8128 4.8128v 48.1283 c -0.0000,2.6581 2.1548,4.8128 4.8128 4.8128h 48.1283 c 2.6581,0.0000 4.8128,-2.1548 4.8128 -4.8128Z"/></g><g stroke-linejoin="miter" stroke-opacity="1.0" fill-opacity="1.0" stroke="rgb(0,0,0)" stroke-width="0.0" fill="rgb(0,0,0)" stroke-linecap="butt" stroke-miterlimit="10.0"><path d="M 91.2914,464.5068 ZM 103.4658,462.9966 c -0.4182,0.9061 -1.3243,1.7658 -1.9981 1.7658c -1.1617,-0.0000 -1.7193,-1.0223 -2.3698 -3.1830l -1.6496,-5.5064 l -3.3224,8.4338 c -0.6273,0.0465 -1.2081,0.1394 -1.7425 0.2788l -0.5808,-0.2788 l 5.1346,-10.1066 l -0.3020,-0.9990 c -0.9526,-3.2062 -1.8587,-3.6941 -2.5092 -3.6941c -0.5808,-0.0000 -1.1849,0.2323 -1.6496 0.5808c -0.1696,-0.0558 -0.3462,-0.0976 -0.3950 -0.3950c 0.6041,-0.8829 1.3475,-1.6031 2.2537 -1.6031c 0.6970,-0.0000 1.9981,0.2556 2.8113 2.9971l 2.4860,8.2479 c 0.9061,3.0668 1.1849,3.8103 1.9284 3.8103c 0.4879,-0.0000 0.9526,-0.1162 1.4405 -0.7202c 0.2625,0.0558 0.3880,0.1626 0.4647 0.3717Z"/></g><g stroke-linejoin="miter" stroke-opacity="1.0" fill-opacity="0.0" stroke="rgb(0,0,0)" stroke-width="1.1999999999999997" fill="rgb(0,0,0)" stroke-linecap="butt" stroke-miterlimit="10.0"><path d="M 126.3369,454.4118 h 169.0877 "/></g><g stroke-linejoin="miter" stroke-opacity="1.0" fill-opacity="1.0" stroke="rgb(0,0,0)" stroke-width="0.0" fill="rgb(0,0,0)" stroke-linecap="butt" stroke-miterlimit="10.0"></g><g stroke-linejoin="miter" stroke-opacity="1.0" fill-opacity="1.0" stroke="rgb(0,0,0)" stroke-width="0.0" fill="rgb(0,0,0)" stroke-linecap="butt" stroke-miterlimit="10.0"></g><g stroke-linejoin="miter" stroke-opacity="1.0" fill-opacity="1.0" stroke="rgb(0,0,0)" stroke-width="0.0" fill="rgb(0,0,0)" stroke-linecap="butt" stroke-miterlimit="10.0"><path d="M 309.2246,454.4118 l -16.2625,-5.2840 l 2.7780,5.2840 l -2.7780,5.2840 Z"/></g><g stroke-linejoin="miter" stroke-opacity="1.0" fill-opacity="1.0" stroke="rgb(0,0,0)" stroke-width="0.0" fill="rgb(0,0,0)" stroke-linecap="butt" stroke-miterlimit="10.0"><path d="M 295.7400,454.4118 h -0.3154 v -0.6000 l 0.3154,0.6000 h -0.3154 v 0.6000 Z"/></g><g stroke-linejoin="miter" stroke-opacity="1.0" fill-opacity="0.0" stroke="rgb(0,0,0)" stroke-width="1.1999999999999997" fill="rgb(0,0,0)" stroke-linecap="butt" stroke-miterlimit="10.0"><path d="M 126.3369,436.5355 l 102.9722,-63.7447 "/></g><g stroke-linejoin="miter" stroke-opacity="1.0" fill-opacity="1.0" stroke="rgb(0,0,0)" stroke-width="0.0" fill="rgb(0,0,0)" stroke-linecap="butt" stroke-miterlimit="10.0"></g><g stroke-linejoin="miter" stroke-opacity="1.0" fill-opacity="1.0" stroke="rgb(0,0,0)" stroke-width="0.0" fill="rgb(0,0,0)" stroke-linecap="butt" stroke-miterlimit="10.0"></g><g stroke-linejoin="miter" stroke-opacity="1.0" fill-opacity="1.0" stroke="rgb(0,0,0)" stroke-width="0.0" fill="rgb(0,0,0)" stroke-linecap="butt" stroke-miterlimit="10.0"><path d="M 241.0428,365.5271 l -16.6087,4.0670 l 5.1433,3.0306 l 0.4193,5.9550 Z"/></g><g stroke-linejoin="miter" stroke-opacity="1.0" fill-opacity="1.0" stroke="rgb(0,0,0)" stroke-width="0.0" fill="rgb(0,0,0)" stroke-linecap="butt" stroke-miterlimit="10.0"><path d="M 229.5773,372.6248 l -0.2682,0.1660 l -0.3158,-0.5102 l 0.5840,0.3441 l -0.2682,0.1660 l 0.3158,0.5102 Z"/></g><g stroke-linejoin="miter" stroke-opacity="1.0" fill-opacity="0.0" stroke="rgb(0,0,0)" stroke-width="1.1999999999999997" fill="rgb(0,0,0)" stroke-linecap="butt" stroke-miterlimit="10.0"><path d="M 97.4599,425.5348 l 0.0000,-137.0021 "/></g><g stroke-linejoin="miter" stroke-opacity="1.0" fill-opacity="1.0" stroke="rgb(0,0,0)" stroke-width="0.0" fill="rgb(0,0,0)" stroke-linecap="butt" stroke-miterlimit="10.0"></g><g stroke-linejoin="miter" stroke-opacity="1.0" fill-opacity="1.0" stroke="rgb(0,0,0)" stroke-width="0.0" fill="rgb(0,0,0)" stroke-linecap="butt" stroke-miterlimit="10.0"></g><g stroke-linejoin="miter" stroke-opacity="1.0" fill-opacity="1.0" stroke="rgb(0,0,0)" stroke-width="0.0" fill="rgb(0,0,0)" stroke-linecap="butt" stroke-miterlimit="10.0"><path d="M 97.4599,274.7326 l -5.2840,16.2625 l 5.2840,-2.7780 l 5.2840,2.7780 Z"/></g><g stroke-linejoin="miter" stroke-opacity="1.0" fill-opacity="1.0" stroke="rgb(0,0,0)" stroke-width="0.0" fill="rgb(0,0,0)" stroke-linecap="butt" stroke-miterlimit="10.0"><path d="M 97.4599,288.2172 l -0.0000,0.3154 l -0.6000,-0.0000 l 0.6000,-0.3154 l -0.0000,0.3154 l 0.6000,0.0000 Z"/></g><g stroke-linejoin="miter" stroke-opacity="1.0" fill-opacity="0.0" stroke="rgb(0,0,0)" stroke-width="1.1999999999999997" fill="rgb(0,0,0)" stroke-linecap="butt" stroke-miterlimit="10.0"><path d="M 338.1016,425.5348 l 0.0000,-137.0021 "/></g><g stroke-linejoin="miter" stroke-opacity="1.0" fill-opacity="1.0" stroke="rgb(0,0,0)" stroke-width="0.0" fill="rgb(0,0,0)" stroke-linecap="butt" stroke-miterlimit="10.0"></g><g stroke-linejoin="miter" stroke-opacity="1.0" fill-opacity="1.0" stroke="rgb(0,0,0)" stroke-width="0.0" fill="rgb(0,0,0)" stroke-linecap="butt" stroke-miterlimit="10.0"></g><g stroke-linejoin="miter" stroke-opacity="1.0" fill-opacity="1.0" stroke="rgb(0,0,0)" stroke-width="0.0" fill="rgb(0,0,0)" stroke-linecap="butt" stroke-miterlimit="10.0"><path d="M 338.1016,274.7326 l -5.2840,16.2625 l 5.2840,-2.7780 l 5.2840,2.7780 Z"/></g><g stroke-linejoin="miter" stroke-opacity="1.0" fill-opacity="1.0" stroke="rgb(0,0,0)" stroke-width="0.0" fill="rgb(0,0,0)" stroke-linecap="butt" stroke-miterlimit="10.0"><path d="M 338.1016,288.2172 l -0.0000,0.3154 l -0.6000,-0.0000 l 0.6000,-0.3154 l -0.0000,0.3154 l 0.6000,0.0000 Z"/></g><g stroke-linejoin="miter" stroke-opacity="1.0" fill-opacity="0.0" stroke="rgb(0,0,0)" stroke-width="1.1999999999999997" fill="rgb(0,0,0)" stroke-linecap="butt" stroke-miterlimit="10.0"><path d="M 366.9786,436.5355 l 102.9722,-63.7447 "/></g><g stroke-linejoin="miter" stroke-opacity="1.0" fill-opacity="1.0" stroke="rgb(0,0,0)" stroke-width="0.0" fill="rgb(0,0,0)" stroke-linecap="butt" stroke-miterlimit="10.0"></g><g stroke-linejoin="miter" stroke-opacity="1.0" fill-opacity="1.0" stroke="rgb(0,0,0)" stroke-width="0.0" fill="rgb(0,0,0)" stroke-linecap="butt" stroke-miterlimit="10.0"></g><g stroke-linejoin="miter" stroke-opacity="1.0" fill-opacity="1.0" stroke="rgb(0,0,0)" stroke-width="0.0" fill="rgb(0,0,0)" stroke-linecap="butt" stroke-miterlimit="10.0"><path d="M 481.6845,365.5271 l -16.6087,4.0670 l 5.1433,3.0306 l 0.4193,5.9550 Z"/></g><g stroke-linejoin="miter" stroke-opacity="1.0" fill-opacity="1.0" stroke="rgb(0,0,0)" stroke-width="0.0" fill="rgb(0,0,0)" stroke-linecap="butt" stroke-miterlimit="10.0"><path d="M 470.2190,372.6248 l -0.2682,0.1660 l -0.3158,-0.5102 l 0.5840,0.3441 l -0.2682,0.1660 l 0.3158,0.5102 Z"/></g><g stroke-linejoin="miter" stroke-opacity="1.0" fill-opacity="0.0" stroke="rgb(0,0,0)" stroke-width="1.1999999999999997" fill="rgb(0,0,0)" stroke-linecap="butt" stroke-miterlimit="10.0"><path d="M 265.9091,325.2674 l 0.0000,-145.0235 "/></g><g stroke-linejoin="miter" stroke-opacity="1.0" fill-opacity="1.0" stroke="rgb(0,0,0)" stroke-width="0.0" fill="rgb(0,0,0)" stroke-linecap="butt" stroke-miterlimit="10.0"></g><g stroke-linejoin="miter" stroke-opacity="1.0" fill-opacity="1.0" stroke="rgb(0,0,0)" stroke-width="0.0" fill="rgb(0,0,0)" stroke-linecap="butt" stroke-miterlimit="10.0"></g><g stroke-linejoin="miter" stroke-opacity="1.0" fill-opacity="1.0" stroke="rgb(0,0,0)" stroke-width="0.0" fill="rgb(0,0,0)" stroke-linecap="butt" stroke-miterlimit="10.0"><path d="M 265.9091,166.4439 l -5.2840,16.2625 l 5.2840,-2.7780 l 5.2840,2.7780 Z"/></g><g stroke-linejoin="miter" stroke-opacity="1.0" fill-opacity="1.0" stroke="rgb(0,0,0)" stroke-width="0.0" fill="rgb(0,0,0)" stroke-linecap="butt" stroke-miterlimit="10.0"><path d="M 265.9091,179.9284 l -0.0000,0.3154 l -0.6000,-0.0000 l 0.6000,-0.3154 l -0.0000,0.3154 l 0.6000,0.0000 Z"/></g><g stroke-linejoin="miter" stroke-opacity="1.0" fill-opacity="0.0" stroke="rgb(0,0,0)" stroke-width="1.1999999999999997" fill="rgb(0,0,0)" stroke-linecap="butt" stroke-miterlimit="10.0"><path d="M 290.7754,350.1337 h 177.1091 "/></g><g stroke-linejoin="miter" stroke-opacity="1.0" fill-opacity="1.0" stroke="rgb(0,0,0)" stroke-width="0.0" fill="rgb(0,0,0)" stroke-linecap="butt" stroke-miterlimit="10.0"></g><g stroke-linejoin="miter" stroke-opacity="1.0" fill-opacity="1.0" stroke="rgb(0,0,0)" stroke-width="0.0" fill="rgb(0,0,0)" stroke-linecap="butt" stroke-miterlimit="10.0"></g><g stroke-linejoin="miter" stroke-opacity="1.0" fill-opacity="1.0" stroke="rgb(0,0,0)" stroke-width="0.0" fill="rgb(0,0,0)" stroke-linecap="butt" stroke-miterlimit="10.0"><path d="M 481.6845,350.1337 l -16.2625,-5.2840 l 2.7780,5.2840 l -2.7780,5.2840 Z"/></g><g stroke-linejoin="miter" stroke-opacity="1.0" fill-opacity="1.0" stroke="rgb(0,0,0)" stroke-width="0.0" fill="rgb(0,0,0)" stroke-linecap="butt" stroke-miterlimit="10.0"><path d="M 468.1999,350.1337 h -0.3154 v -0.6000 l 0.3154,0.6000 h -0.3154 v 0.6000 Z"/></g><g stroke-linejoin="miter" stroke-opacity="1.0" fill-opacity="0.0" stroke="rgb(0,0,0)" stroke-width="1.1999999999999997" fill="rgb(0,0,0)" stroke-linecap="butt" stroke-miterlimit="10.0"><path d="M 126.3369,245.8556 h 169.0877 "/></g><g stroke-linejoin="miter" stroke-opacity="1.0" fill-opacity="1.0" stroke="rgb(0,0,0)" stroke-width="0.0" fill="rgb(0,0,0)" stroke-linecap="butt" stroke-miterlimit="10.0"></g><g stroke-linejoin="miter" stroke-opacity="1.0" fill-opacity="1.0" stroke="rgb(0,0,0)" stroke-width="0.0" fill="rgb(0,0,0)" stroke-linecap="butt" stroke-miterlimit="10.0"></g><g stroke-linejoin="miter" stroke-opacity="1.0" fill-opacity="1.0" stroke="rgb(0,0,0)" stroke-width="0.0" fill="rgb(0,0,0)" stroke-linecap="butt" stroke-miterlimit="10.0"><path d="M 309.2246,245.8556 l -16.2625,-5.2840 l 2.7780,5.2840 l -2.7780,5.2840 Z"/></g><g stroke-linejoin="miter" stroke-opacity="1.0" fill-opacity="1.0" stroke="rgb(0,0,0)" stroke-width="0.0" fill="rgb(0,0,0)" stroke-linecap="butt" stroke-miterlimit="10.0"><path d="M 295.7400,245.8556 h -0.3154 v -0.6000 l 0.3154,0.6000 h -0.3154 v 0.6000 Z"/></g><g stroke-linejoin="miter" stroke-opacity="1.0" fill-opacity="0.0" stroke="rgb(0,0,0)" stroke-width="1.1999999999999997" fill="rgb(0,0,0)" stroke-linecap="butt" stroke-miterlimit="10.0"><path d="M 126.3369,227.9794 l 102.9722,-63.7447 "/></g><g stroke-linejoin="miter" stroke-opacity="1.0" fill-opacity="1.0" stroke="rgb(0,0,0)" stroke-width="0.0" fill="rgb(0,0,0)" stroke-linecap="butt" stroke-miterlimit="10.0"></g><g stroke-linejoin="miter" stroke-opacity="1.0" fill-opacity="1.0" stroke="rgb(0,0,0)" stroke-width="0.0" fill="rgb(0,0,0)" stroke-linecap="butt" stroke-miterlimit="10.0"></g><g stroke-linejoin="miter" stroke-opacity="1.0" fill-opacity="1.0" stroke="rgb(0,0,0)" stroke-width="0.0" fill="rgb(0,0,0)" stroke-linecap="butt" stroke-miterlimit="10.0"><path d="M 241.0428,156.9710 l -16.6087,4.0670 l 5.1433,3.0306 l 0.4193,5.9550 Z"/></g><g stroke-linejoin="miter" stroke-opacity="1.0" fill-opacity="1.0" stroke="rgb(0,0,0)" stroke-width="0.0" fill="rgb(0,0,0)" stroke-linecap="butt" stroke-miterlimit="10.0"><path d="M 229.5773,164.0686 l -0.2682,0.1660 l -0.3158,-0.5102 l 0.5840,0.3441 l -0.2682,0.1660 l 0.3158,0.5102 Z"/></g><g stroke-linejoin="miter" stroke-opacity="1.0" fill-opacity="0.0" stroke="rgb(0,0,0)" stroke-width="1.1999999999999997" fill="rgb(0,0,0)" stroke-linecap="butt" stroke-miterlimit="10.0"><path d="M 366.9786,227.9794 l 102.9722,-63.7447 "/></g><g stroke-linejoin="miter" stroke-opacity="1.0" fill-opacity="1.0" stroke="rgb(0,0,0)" stroke-width="0.0" fill="rgb(0,0,0)" stroke-linecap="butt" stroke-miterlimit="10.0"></g><g stroke-linejoin="miter" stroke-opacity="1.0" fill-opacity="1.0" stroke="rgb(0,0,0)" stroke-width="0.0" fill="rgb(0,0,0)" stroke-linecap="butt" stroke-miterlimit="10.0"></g><g stroke-linejoin="miter" stroke-opacity="1.0" fill-opacity="1.0" stroke="rgb(0,0,0)" stroke-width="0.0" fill="rgb(0,0,0)" stroke-linecap="butt" stroke-miterlimit="10.0"><path d="M 481.6845,156.9710 l -16.6087,4.0670 l 5.1433,3.0306 l 0.4193,5.9550 Z"/></g><g stroke-linejoin="miter" stroke-opacity="1.0" fill-opacity="1.0" stroke="rgb(0,0,0)" stroke-width="0.0" fill="rgb(0,0,0)" stroke-linecap="butt" stroke-miterlimit="10.0"><path d="M 470.2190,164.0686 l -0.2682,0.1660 l -0.3158,-0.5102 l 0.5840,0.3441 l -0.2682,0.1660 l 0.3158,0.5102 Z"/></g><g stroke-linejoin="miter" stroke-opacity="1.0" fill-opacity="0.0" stroke="rgb(0,0,0)" stroke-width="1.1999999999999997" fill="rgb(0,0,0)" stroke-linecap="butt" stroke-miterlimit="10.0"><path d="M 290.7754,141.5775 h 177.1091 "/></g><g stroke-linejoin="miter" stroke-opacity="1.0" fill-opacity="1.0" stroke="rgb(0,0,0)" stroke-width="0.0" fill="rgb(0,0,0)" stroke-linecap="butt" stroke-miterlimit="10.0"></g><g stroke-linejoin="miter" stroke-opacity="1.0" fill-opacity="1.0" stroke="rgb(0,0,0)" stroke-width="0.0" fill="rgb(0,0,0)" stroke-linecap="butt" stroke-miterlimit="10.0"></g><g stroke-linejoin="miter" stroke-opacity="1.0" fill-opacity="1.0" stroke="rgb(0,0,0)" stroke-width="0.0" fill="rgb(0,0,0)" stroke-linecap="butt" stroke-miterlimit="10.0"><path d="M 481.6845,141.5775 l -16.2625,-5.2840 l 2.7780,5.2840 l -2.7780,5.2840 Z"/></g><g stroke-linejoin="miter" stroke-opacity="1.0" fill-opacity="1.0" stroke="rgb(0,0,0)" stroke-width="0.0" fill="rgb(0,0,0)" stroke-linecap="butt" stroke-miterlimit="10.0"><path d="M 468.1999,141.5775 h -0.3154 v -0.6000 l 0.3154,0.6000 h -0.3154 v 0.6000 Z"/></g><g stroke-linejoin="miter" stroke-opacity="1.0" fill-opacity="0.0" stroke="rgb(0,0,0)" stroke-width="1.1999999999999997" fill="rgb(0,0,0)" stroke-linecap="butt" stroke-miterlimit="10.0"><path d="M 506.5508,325.2674 l 0.0000,-145.0235 "/></g><g stroke-linejoin="miter" stroke-opacity="1.0" fill-opacity="1.0" stroke="rgb(0,0,0)" stroke-width="0.0" fill="rgb(0,0,0)" stroke-linecap="butt" stroke-miterlimit="10.0"></g><g stroke-linejoin="miter" stroke-opacity="1.0" fill-opacity="1.0" stroke="rgb(0,0,0)" stroke-width="0.0" fill="rgb(0,0,0)" stroke-linecap="butt" stroke-miterlimit="10.0"></g><g stroke-linejoin="miter" stroke-opacity="1.0" fill-opacity="1.0" stroke="rgb(0,0,0)" stroke-width="0.0" fill="rgb(0,0,0)" stroke-linecap="butt" stroke-miterlimit="10.0"><path d="M 506.5508,166.4439 l -5.2840,16.2625 l 5.2840,-2.7780 l 5.2840,2.7780 Z"/></g><g stroke-linejoin="miter" stroke-opacity="1.0" fill-opacity="1.0" stroke="rgb(0,0,0)" stroke-width="0.0" fill="rgb(0,0,0)" stroke-linecap="butt" stroke-miterlimit="10.0"><path d="M 506.5508,179.9284 l -0.0000,0.3154 l -0.6000,-0.0000 l 0.6000,-0.3154 l -0.0000,0.3154 l 0.6000,0.0000 Z"/></g><g stroke-linejoin="miter" stroke-opacity="1.0" fill-opacity="0.0" stroke="rgb(0,0,0)" stroke-width="0.0" fill="rgb(0,0,0)" stroke-linecap="butt" stroke-miterlimit="10.0"><path d="M 531.4171,161.6310 v -40.1070 c 0.0000,-2.6581 -2.1548,-4.8128 -4.8128 -4.8128h -40.1070 c -2.6581,-0.0000 -4.8128,2.1548 -4.8128 4.8128v 40.1070 c -0.0000,2.6581 2.1548,4.8128 4.8128 4.8128h 40.1070 c 2.6581,0.0000 4.8128,-2.1548 4.8128 -4.8128Z"/></g><g stroke-linejoin="miter" stroke-opacity="1.0" fill-opacity="1.0" stroke="rgb(0,0,0)" stroke-width="0.0" fill="rgb(0,0,0)" stroke-linecap="butt" stroke-miterlimit="10.0"><path d="M 496.2961,149.1488 ZM 505.4269,148.0161 c -0.3137,0.6796 -0.9932,1.3243 -1.4986 1.3243c -0.8713,-0.0000 -1.2895,-0.7667 -1.7774 -2.3872l -1.2372,-4.1298 l -2.4918,6.3253 c -0.4705,0.0349 -0.9061,0.1046 -1.3069 0.2091l -0.4356,-0.2091 l 3.8510,-7.5800 l -0.2265,-0.7493 c -0.7144,-2.4047 -1.3940,-2.7706 -1.8819 -2.7706c -0.4356,-0.0000 -0.8887,0.1743 -1.2372 0.4356c -0.1272,-0.0418 -0.2596,-0.0732 -0.2962 -0.2962c 0.4531,-0.6622 1.0107,-1.2023 1.6902 -1.2023c 0.5228,-0.0000 1.4986,0.1917 2.1084 2.2478l 1.8645,6.1859 c 0.6796,2.3001 0.8887,2.8577 1.4463 2.8577c 0.3659,-0.0000 0.7144,-0.0871 1.0804 -0.5402c 0.1969,0.0418 0.2910,0.1220 0.3485 0.2788ZM 505.5489,149.1488 ZM 511.7696,149.3230 c -3.7464,-0.0000 -5.5761,-2.5476 -5.5761 -5.5761c 0.0000,-1.8174 0.6900,-3.5234 1.8471 -4.5828c 1.0281,-0.9410 2.2653,-1.4811 3.7464 -1.4811c 2.1433,-0.0000 2.9274,0.6970 3.8161 0.7841c 0.1743,0.9584 0.2962,1.7948 0.3834 2.7009c -0.1969,0.1046 -0.3659,0.1568 -0.5750 0.0871c -0.4531,-1.4986 -1.4114,-2.9274 -3.8161 -2.9274c -0.9061,-0.0000 -1.9168,0.4879 -2.7811 1.5508c -0.6360,0.7824 -1.0351,2.0335 -1.0351 3.5373c 0.0000,2.5441 1.6275,5.1927 3.9729 5.1927c 1.6205,-0.0000 2.8055,-0.5402 4.0426 -1.8993c 0.1917,-0.0000 0.3137,0.1046 0.4008 0.2614c -1.1849,1.5508 -2.7358,2.3524 -4.4260 2.3524Z"/></g><g stroke-linejoin="miter" stroke-opacity="1.0" fill-opacity="0.0" stroke="rgb(0,0,0)" stroke-width="0.0" fill="rgb(0,0,0)" stroke-linecap="butt" stroke-miterlimit="10.0"><path d="M 531.4171,370.1872 v -40.1070 c 0.0000,-2.6581 -2.1548,-4.8128 -4.8128 -4.8128h -40.1070 c -2.6581,-0.0000 -4.8128,2.1548 -4.8128 4.8128v 40.1070 c -0.0000,2.6581 2.1548,4.8128 4.8128 4.8128h 40.1070 c 2.6581,0.0000 4.8128,-2.1548 4.8128 -4.8128Z"/></g><g stroke-linejoin="miter" stroke-opacity="1.0" fill-opacity="1.0" stroke="rgb(0,0,0)" stroke-width="0.0" fill="rgb(0,0,0)" stroke-linecap="butt" stroke-miterlimit="10.0"><path d="M 491.4780,357.7049 ZM 500.6088,356.5723 c -0.3137,0.6796 -0.9932,1.3243 -1.4986 1.3243c -0.8713,-0.0000 -1.2895,-0.7667 -1.7774 -2.3872l -1.2372,-4.1298 l -2.4918,6.3253 c -0.4705,0.0349 -0.9061,0.1046 -1.3069 0.2091l -0.4356,-0.2091 l 3.8510,-7.5800 l -0.2265,-0.7493 c -0.7144,-2.4047 -1.3940,-2.7706 -1.8819 -2.7706c -0.4356,-0.0000 -0.8887,0.1743 -1.2372 0.4356c -0.1272,-0.0418 -0.2596,-0.0732 -0.2962 -0.2962c 0.4531,-0.6622 1.0107,-1.2023 1.6902 -1.2023c 0.5228,-0.0000 1.4986,0.1917 2.1084 2.2478l 1.8645,6.1859 c 0.6796,2.3001 0.8887,2.8577 1.4463 2.8577c 0.3659,-0.0000 0.7144,-0.0871 1.0804 -0.5402c 0.1969,0.0418 0.2910,0.1220 0.3485 0.2788ZM 500.7308,357.7049 ZM 504.0242,348.0514 v 4.0601 c 0.1917,0.0523 0.8887,0.0871 1.3243 0.0871c 1.6902,-0.0000 2.5964,-0.7667 2.5964 -2.6486c 0.0000,-2.2130 -1.2023,-2.6138 -2.4047 -2.6138c -1.2546,-0.0000 -1.5160,0.6099 -1.5160 1.1152ZM 504.0242,348.0514 ZM 502.5430,348.5916 c 0.0000,-1.4463 -0.2962,-1.5334 -1.5160 -1.5857c -0.1046,-0.1046 -0.1046,-0.4705 0.0000 -0.5750c 0.6970,0.0174 1.6083,0.0349 2.2478 0.0349c 0.6970,-0.0000 1.7199,-0.1220 2.3872 -0.1220c 3.2237,-0.0000 3.9032,1.8645 3.9032 2.8926c 0.0000,1.4811 -0.9584,3.5547 -4.1298 3.5547c -0.6099,-0.0000 -1.0281,-0.0523 -1.4114 -0.1743v 2.9623 c 0.0000,1.4463 0.4182,1.5160 1.7774 1.5857c 0.1046,0.1046 0.1046,0.4705 0.0000 0.5750c -0.8713,-0.0174 -1.8924,-0.0349 -2.5092 -0.0349c -0.6221,-0.0000 -1.4811,0.0174 -2.2653 0.0349c -0.1046,-0.1046 -0.1046,-0.4705 0.0000 -0.5750c 1.2198,-0.0523 1.5160,-0.1394 1.5160 -1.5857v -6.9875 ZM 510.1578,357.7049 ZM 521.0311,354.4116 c 0.0000,1.8122 -1.1849,3.4676 -3.3108 3.4676c -0.8887,-0.0000 -1.5857,-0.5402 -1.9690 -1.7948c -0.4705,1.2546 -1.0455,1.7948 -2.0387 1.7948c -1.5683,-0.0000 -2.9623,-1.2720 -2.9623 -3.5547c 0.0000,-2.0562 1.2198,-3.4850 3.1888 -4.3214c 0.1324,0.0697 0.2091,0.2387 0.2265 0.4008c -1.1326,0.7144 -1.9865,1.5334 -1.9865 3.6593c 0.0000,1.9516 0.4705,3.1714 1.7599 3.1714c 0.6447,-0.0000 1.0455,-0.5228 1.5857 -1.7599c -0.2265,-0.5750 -0.2614,-1.2198 -0.2614 -1.5683c 0.0000,-0.5402 0.1917,-1.1501 0.6447 -1.1501c 0.4705,-0.0000 0.5228,0.2265 0.5228 0.6447c 0.0000,0.4182 -0.1568,1.3766 -0.4182 2.0213c 0.5228,1.2023 1.1326,1.8122 1.8296 1.8122c 1.2546,-0.0000 1.7599,-0.6447 1.7599 -2.5615c 0.0000,-1.2720 -0.2962,-2.8926 -2.1084 -4.2692c 0.0174,-0.1411 0.0331,-0.3502 0.2614 -0.4008c 1.6380,0.7841 3.2759,2.3872 3.2759 4.4086Z"/></g><g stroke-linejoin="miter" stroke-opacity="1.0" fill-opacity="0.0" stroke="rgb(0,0,0)" stroke-width="0.0" fill="rgb(0,0,0)" stroke-linecap="butt" stroke-miterlimit="10.0"><path d="M 290.7754,161.6310 v -40.1070 c 0.0000,-2.6581 -2.1548,-4.8128 -4.8128 -4.8128h -40.1070 c -2.6581,-0.0000 -4.8128,2.1548 -4.8128 4.8128v 40.1070 c -0.0000,2.6581 2.1548,4.8128 4.8128 4.8128h 40.1070 c 2.6581,0.0000 4.8128,-2.1548 4.8128 -4.8128Z"/></g><g stroke-linejoin="miter" stroke-opacity="1.0" fill-opacity="1.0" stroke="rgb(0,0,0)" stroke-width="0.0" fill="rgb(0,0,0)" stroke-linecap="butt" stroke-miterlimit="10.0"><path d="M 255.5498,149.1488 ZM 264.6806,148.0161 c -0.3137,0.6796 -0.9932,1.3243 -1.4986 1.3243c -0.8713,-0.0000 -1.2895,-0.7667 -1.7774 -2.3872l -1.2372,-4.1298 l -2.4918,6.3253 c -0.4705,0.0349 -0.9061,0.1046 -1.3069 0.2091l -0.4356,-0.2091 l 3.8510,-7.5800 l -0.2265,-0.7493 c -0.7144,-2.4047 -1.3940,-2.7706 -1.8819 -2.7706c -0.4356,-0.0000 -0.8887,0.1743 -1.2372 0.4356c -0.1272,-0.0418 -0.2596,-0.0732 -0.2962 -0.2962c 0.4531,-0.6622 1.0107,-1.2023 1.6902 -1.2023c 0.5228,-0.0000 1.4986,0.1917 2.1084 2.2478l 1.8645,6.1859 c 0.6796,2.3001 0.8887,2.8577 1.4463 2.8577c 0.3659,-0.0000 0.7144,-0.0871 1.0804 -0.5402c 0.1969,0.0418 0.2910,0.1220 0.3485 0.2788ZM 264.8026,149.1488 ZM 275.6759,145.8554 c 0.0000,1.8122 -1.1849,3.4676 -3.3108 3.4676c -0.8887,-0.0000 -1.5857,-0.5402 -1.9690 -1.7948c -0.4705,1.2546 -1.0455,1.7948 -2.0387 1.7948c -1.5683,-0.0000 -2.9623,-1.2720 -2.9623 -3.5547c 0.0000,-2.0562 1.2198,-3.4850 3.1888 -4.3214c 0.1324,0.0697 0.2091,0.2387 0.2265 0.4008c -1.1326,0.7144 -1.9865,1.5334 -1.9865 3.6593c 0.0000,1.9516 0.4705,3.1714 1.7599 3.1714c 0.6447,-0.0000 1.0455,-0.5228 1.5857 -1.7599c -0.2265,-0.5750 -0.2614,-1.2198 -0.2614 -1.5683c 0.0000,-0.5402 0.1917,-1.1501 0.6447 -1.1501c 0.4705,-0.0000 0.5228,0.2265 0.5228 0.6447c 0.0000,0.4182 -0.1568,1.3766 -0.4182 2.0213c 0.5228,1.2023 1.1326,1.8122 1.8296 1.8122c 1.2546,-0.0000 1.7599,-0.6447 1.7599 -2.5615c 0.0000,-1.2720 -0.2962,-2.8926 -2.1084 -4.2692c 0.0174,-0.1411 0.0331,-0.3502 0.2614 -0.4008c 1.6380,0.7841 3.2759,2.3872 3.2759 4.4086Z"/></g><g stroke-linejoin="miter" stroke-opacity="1.0" fill-opacity="0.0" stroke="rgb(0,0,0)" stroke-width="0.0" fill="rgb(0,0,0)" stroke-linecap="butt" stroke-miterlimit="10.0"><path d="M 366.9786,269.9198 v -48.1283 c 0.0000,-2.6581 -2.1548,-4.8128 -4.8128 -4.8128h -48.1283 c -2.6581,-0.0000 -4.8128,2.1548 -4.8128 4.8128v 48.1283 c -0.0000,2.6581 2.1548,4.8128 4.8128 4.8128h 48.1283 c 2.6581,0.0000 4.8128,-2.1548 4.8128 -4.8128Z"/></g><g stroke-linejoin="miter" stroke-opacity="1.0" fill-opacity="1.0" stroke="rgb(0,0,0)" stroke-width="0.0" fill="rgb(0,0,0)" stroke-linecap="butt" stroke-miterlimit="10.0"><path d="M 320.2466,255.9506 ZM 332.4210,254.4404 c -0.4182,0.9061 -1.3243,1.7658 -1.9981 1.7658c -1.1617,-0.0000 -1.7193,-1.0223 -2.3698 -3.1830l -1.6496,-5.5064 l -3.3224,8.4338 c -0.6273,0.0465 -1.2081,0.1394 -1.7425 0.2788l -0.5808,-0.2788 l 5.1346,-10.1066 l -0.3020,-0.9990 c -0.9526,-3.2062 -1.8587,-3.6941 -2.5092 -3.6941c -0.5808,-0.0000 -1.1849,0.2323 -1.6496 0.5808c -0.1696,-0.0558 -0.3462,-0.0976 -0.3950 -0.3950c 0.6041,-0.8829 1.3475,-1.6031 2.2537 -1.6031c 0.6970,-0.0000 1.9981,0.2556 2.8113 2.9971l 2.4860,8.2479 c 0.9061,3.0668 1.1849,3.8103 1.9284 3.8103c 0.4879,-0.0000 0.9526,-0.1162 1.4405 -0.7202c 0.2625,0.0558 0.3880,0.1626 0.4647 0.3717ZM 332.5836,255.9506 ZM 336.9748,243.0792 v 5.4134 c 0.2556,0.0697 1.1849,0.1162 1.7658 0.1162c 2.2537,-0.0000 3.4618,-1.0223 3.4618 -3.5315c 0.0000,-2.9507 -1.6031,-3.4850 -3.2062 -3.4850c -1.6728,-0.0000 -2.0213,0.8132 -2.0213 1.4869ZM 336.9748,243.0792 ZM 334.9999,243.7994 c 0.0000,-1.9284 -0.3950,-2.0446 -2.0213 -2.1143c -0.1394,-0.1394 -0.1394,-0.6273 0.0000 -0.7667c 0.9293,0.0232 2.1445,0.0465 2.9971 0.0465c 0.9293,-0.0000 2.2932,-0.1626 3.1830 -0.1626c 4.2982,-0.0000 5.2043,2.4860 5.2043 3.8568c 0.0000,1.9749 -1.2778,4.7396 -5.5064 4.7396c -0.8132,-0.0000 -1.3708,-0.0697 -1.8819 -0.2323v 3.9497 c 0.0000,1.9284 0.5576,2.0213 2.3698 2.1143c 0.1394,0.1394 0.1394,0.6273 0.0000 0.7667c -1.1617,-0.0232 -2.5232,-0.0465 -3.3456 -0.0465c -0.8294,-0.0000 -1.9749,0.0232 -3.0204 0.0465c -0.1394,-0.1394 -0.1394,-0.6273 0.0000 -0.7667c 1.6263,-0.0697 2.0213,-0.1859 2.0213 -2.1143v -9.3167 ZM 345.1530,255.9506 ZM 346.5702,245.0773 c 0.0000,-1.3940 1.6031,-3.2992 4.1820 -3.2992c 1.8819,-0.0000 3.9265,1.0223 3.9265 3.5315c 0.0000,1.7658 -0.9990,2.7880 -2.3234 4.0659l -2.3466,2.2537 c -0.1162,0.1162 -1.7193,1.6961 -1.7193 2.8113h 4.1356 c 0.8364,-0.0000 1.2314,-0.5808 1.6263 -2.2304c 0.2323,-0.0465 0.5344,-0.0000 0.6738 0.1162c -0.0232,0.6970 -0.2556,2.4395 -0.5576 3.6709c 0.0000,-0.0000 -1.0687,-0.0465 -1.8122 -0.0465h -4.0659 c -0.7435,-0.0000 -1.9284,0.0465 -1.9284 0.0465c 0.0000,-1.3708 0.3717,-2.4860 2.6486 -4.8093l 1.7193,-1.6961 c 1.3708,-1.3940 1.9052,-2.6022 1.9052 -4.0891c 0.0000,-2.2304 -1.1849,-2.8113 -2.0213 -2.8113c -1.6961,-0.0000 -2.3001,0.8364 -2.3001 1.4172c 0.0000,0.1859 0.1394,0.3950 0.1859 0.5576c 0.0465,0.1626 0.0929,0.3020 0.0929 0.4879c 0.0000,0.5135 -0.6970,0.9293 -1.0920 0.9293c -0.4879,-0.0000 -0.9293,-0.4182 -0.9293 -0.9061Z"/></g><g stroke-linejoin="miter" stroke-opacity="1.0" fill-opacity="0.0" stroke="rgb(0,0,0)" stroke-width="0.0" fill="rgb(0,0,0)" stroke-linecap="butt" stroke-miterlimit="10.0"><path d="M 126.3369,269.9198 v -48.1283 c 0.0000,-2.6581 -2.1548,-4.8128 -4.8128 -4.8128h -48.1283 c -2.6581,-0.0000 -4.8128,2.1548 -4.8128 4.8128v 48.1283 c -0.0000,2.6581 2.1548,4.8128 4.8128 4.8128h 48.1283 c 2.6581,0.0000 4.8128,-2.1548 4.8128 -4.8128Z"/></g><g stroke-linejoin="miter" stroke-opacity="1.0" fill-opacity="1.0" stroke="rgb(0,0,0)" stroke-width="0.0" fill="rgb(0,0,0)" stroke-linecap="butt" stroke-miterlimit="10.0"><path d="M 85.8896,255.9506 ZM 98.0640,254.4404 c -0.4182,0.9061 -1.3243,1.7658 -1.9981 1.7658c -1.1617,-0.0000 -1.7193,-1.0223 -2.3698 -3.1830l -1.6496,-5.5064 l -3.3224,8.4338 c -0.6273,0.0465 -1.2081,0.1394 -1.7425 0.2788l -0.5808,-0.2788 l 5.1346,-10.1066 l -0.3020,-0.9990 c -0.9526,-3.2062 -1.8587,-3.6941 -2.5092 -3.6941c -0.5808,-0.0000 -1.1849,0.2323 -1.6496 0.5808c -0.1696,-0.0558 -0.3462,-0.0976 -0.3950 -0.3950c 0.6041,-0.8829 1.3475,-1.6031 2.2537 -1.6031c 0.6970,-0.0000 1.9981,0.2556 2.8113 2.9971l 2.4860,8.2479 c 0.9061,3.0668 1.1849,3.8103 1.9284 3.8103c 0.4879,-0.0000 0.9526,-0.1162 1.4405 -0.7202c 0.2625,0.0558 0.3880,0.1626 0.4647 0.3717ZM 98.2266,255.9506 ZM 99.6438,245.0773 c 0.0000,-1.3940 1.6031,-3.2992 4.1820 -3.2992c 1.8819,-0.0000 3.9265,1.0223 3.9265 3.5315c 0.0000,1.7658 -0.9990,2.7880 -2.3234 4.0659l -2.3466,2.2537 c -0.1162,0.1162 -1.7193,1.6961 -1.7193 2.8113h 4.1356 c 0.8364,-0.0000 1.2314,-0.5808 1.6263 -2.2304c 0.2323,-0.0465 0.5344,-0.0000 0.6738 0.1162c -0.0232,0.6970 -0.2556,2.4395 -0.5576 3.6709c 0.0000,-0.0000 -1.0687,-0.0465 -1.8122 -0.0465h -4.0659 c -0.7435,-0.0000 -1.9284,0.0465 -1.9284 0.0465c 0.0000,-1.3708 0.3717,-2.4860 2.6486 -4.8093l 1.7193,-1.6961 c 1.3708,-1.3940 1.9052,-2.6022 1.9052 -4.0891c 0.0000,-2.2304 -1.1849,-2.8113 -2.0213 -2.8113c -1.6961,-0.0000 -2.3001,0.8364 -2.3001 1.4172c 0.0000,0.1859 0.1394,0.3950 0.1859 0.5576c 0.0465,0.1626 0.0929,0.3020 0.0929 0.4879c 0.0000,0.5135 -0.6970,0.9293 -1.0920 0.9293c -0.4879,-0.0000 -0.9293,-0.4182 -0.9293 -0.9061Z"/></g><g stroke-linejoin="miter" stroke-opacity="1.0" fill-opacity="0.0" stroke="rgb(0,0,0)" stroke-width="0.0" fill="rgb(0,0,0)" stroke-linecap="butt" stroke-miterlimit="10.0"><path d="M 290.7754,370.1872 v -40.1070 c 0.0000,-2.6581 -2.1548,-4.8128 -4.8128 -4.8128h -40.1070 c -2.6581,-0.0000 -4.8128,2.1548 -4.8128 4.8128v 40.1070 c -0.0000,2.6581 2.1548,4.8128 4.8128 4.8128h 40.1070 c 2.6581,0.0000 4.8128,-2.1548 4.8128 -4.8128Z"/></g><g stroke-linejoin="miter" stroke-opacity="1.0" fill-opacity="1.0" stroke="rgb(0,0,0)" stroke-width="0.0" fill="rgb(0,0,0)" stroke-linecap="butt" stroke-miterlimit="10.0"><path d="M 255.5498,357.7049 ZM 264.6806,356.5723 c -0.3137,0.6796 -0.9932,1.3243 -1.4986 1.3243c -0.8713,-0.0000 -1.2895,-0.7667 -1.7774 -2.3872l -1.2372,-4.1298 l -2.4918,6.3253 c -0.4705,0.0349 -0.9061,0.1046 -1.3069 0.2091l -0.4356,-0.2091 l 3.8510,-7.5800 l -0.2265,-0.7493 c -0.7144,-2.4047 -1.3940,-2.7706 -1.8819 -2.7706c -0.4356,-0.0000 -0.8887,0.1743 -1.2372 0.4356c -0.1272,-0.0418 -0.2596,-0.0732 -0.2962 -0.2962c 0.4531,-0.6622 1.0107,-1.2023 1.6902 -1.2023c 0.5228,-0.0000 1.4986,0.1917 2.1084 2.2478l 1.8645,6.1859 c 0.6796,2.3001 0.8887,2.8577 1.4463 2.8577c 0.3659,-0.0000 0.7144,-0.0871 1.0804 -0.5402c 0.1969,0.0418 0.2910,0.1220 0.3485 0.2788ZM 264.8026,357.7049 ZM 275.6759,354.4116 c 0.0000,1.8122 -1.1849,3.4676 -3.3108 3.4676c -0.8887,-0.0000 -1.5857,-0.5402 -1.9690 -1.7948c -0.4705,1.2546 -1.0455,1.7948 -2.0387 1.7948c -1.5683,-0.0000 -2.9623,-1.2720 -2.9623 -3.5547c 0.0000,-2.0562 1.2198,-3.4850 3.1888 -4.3214c 0.1324,0.0697 0.2091,0.2387 0.2265 0.4008c -1.1326,0.7144 -1.9865,1.5334 -1.9865 3.6593c 0.0000,1.9516 0.4705,3.1714 1.7599 3.1714c 0.6447,-0.0000 1.0455,-0.5228 1.5857 -1.7599c -0.2265,-0.5750 -0.2614,-1.2198 -0.2614 -1.5683c 0.0000,-0.5402 0.1917,-1.1501 0.6447 -1.1501c 0.4705,-0.0000 0.5228,0.2265 0.5228 0.6447c 0.0000,0.4182 -0.1568,1.3766 -0.4182 2.0213c 0.5228,1.2023 1.1326,1.8122 1.8296 1.8122c 1.2546,-0.0000 1.7599,-0.6447 1.7599 -2.5615c 0.0000,-1.2720 -0.2962,-2.8926 -2.1084 -4.2692c 0.0174,-0.1411 0.0331,-0.3502 0.2614 -0.4008c 1.6380,0.7841 3.2759,2.3872 3.2759 4.4086Z"/></g><g stroke-linejoin="miter" stroke-opacity="1.0" fill-opacity="0.0" stroke="rgb(0,0,0)" stroke-width="0.0" fill="rgb(0,0,0)" stroke-linecap="butt" stroke-miterlimit="10.0"><path d="M 366.9786,478.4759 v -48.1283 c 0.0000,-2.6581 -2.1548,-4.8128 -4.8128 -4.8128h -48.1283 c -2.6581,-0.0000 -4.8128,2.1548 -4.8128 4.8128v 48.1283 c -0.0000,2.6581 2.1548,4.8128 4.8128 4.8128h 48.1283 c 2.6581,0.0000 4.8128,-2.1548 4.8128 -4.8128Z"/></g><g stroke-linejoin="miter" stroke-opacity="1.0" fill-opacity="1.0" stroke="rgb(0,0,0)" stroke-width="0.0" fill="rgb(0,0,0)" stroke-linecap="butt" stroke-miterlimit="10.0"><path d="M 325.6484,464.5068 ZM 337.8228,462.9966 c -0.4182,0.9061 -1.3243,1.7658 -1.9981 1.7658c -1.1617,-0.0000 -1.7193,-1.0223 -2.3698 -3.1830l -1.6496,-5.5064 l -3.3224,8.4338 c -0.6273,0.0465 -1.2081,0.1394 -1.7425 0.2788l -0.5808,-0.2788 l 5.1346,-10.1066 l -0.3020,-0.9990 c -0.9526,-3.2062 -1.8587,-3.6941 -2.5092 -3.6941c -0.5808,-0.0000 -1.1849,0.2323 -1.6496 0.5808c -0.1696,-0.0558 -0.3462,-0.0976 -0.3950 -0.3950c 0.6041,-0.8829 1.3475,-1.6031 2.2537 -1.6031c 0.6970,-0.0000 1.9981,0.2556 2.8113 2.9971l 2.4860,8.2479 c 0.9061,3.0668 1.1849,3.8103 1.9284 3.8103c 0.4879,-0.0000 0.9526,-0.1162 1.4405 -0.7202c 0.2625,0.0558 0.3880,0.1626 0.4647 0.3717ZM 337.9854,464.5068 ZM 342.3766,451.6354 v 5.4134 c 0.2556,0.0697 1.1849,0.1162 1.7658 0.1162c 2.2537,-0.0000 3.4618,-1.0223 3.4618 -3.5315c 0.0000,-2.9507 -1.6031,-3.4850 -3.2062 -3.4850c -1.6728,-0.0000 -2.0213,0.8132 -2.0213 1.4869ZM 342.3766,451.6354 ZM 340.4017,452.3556 c 0.0000,-1.9284 -0.3950,-2.0446 -2.0213 -2.1143c -0.1394,-0.1394 -0.1394,-0.6273 0.0000 -0.7667c 0.9293,0.0232 2.1445,0.0465 2.9971 0.0465c 0.9293,-0.0000 2.2932,-0.1626 3.1830 -0.1626c 4.2982,-0.0000 5.2043,2.4860 5.2043 3.8568c 0.0000,1.9749 -1.2778,4.7396 -5.5064 4.7396c -0.8132,-0.0000 -1.3708,-0.0697 -1.8819 -0.2323v 3.9497 c 0.0000,1.9284 0.5576,2.0213 2.3698 2.1143c 0.1394,0.1394 0.1394,0.6273 0.0000 0.7667c -1.1617,-0.0232 -2.5232,-0.0465 -3.3456 -0.0465c -0.8294,-0.0000 -1.9749,0.0232 -3.0204 0.0465c -0.1394,-0.1394 -0.1394,-0.6273 0.0000 -0.7667c 1.6263,-0.0697 2.0213,-0.1859 2.0213 -2.1143v -9.3167 Z"/></g><g stroke-linejoin="miter" stroke-opacity="1.0" fill-opacity="0.0" stroke="rgb(0,0,0)" stroke-width="0.0" fill="rgb(0,0,0)" stroke-linecap="butt" stroke-miterlimit="10.0"><path d="M 126.3369,478.4759 v -48.1283 c 0.0000,-2.6581 -2.1548,-4.8128 -4.8128 -4.8128h -48.1283 c -2.6581,-0.0000 -4.8128,2.1548 -4.8128 4.8128v 48.1283 c -0.0000,2.6581 2.1548,4.8128 4.8128 4.8128h 48.1283 c 2.6581,0.0000 4.8128,-2.1548 4.8128 -4.8128Z"/></g><g stroke-linejoin="miter" stroke-opacity="1.0" fill-opacity="1.0" stroke="rgb(0,0,0)" stroke-width="0.0" fill="rgb(0,0,0)" stroke-linecap="butt" stroke-miterlimit="10.0"><path d="M 91.2914,464.5068 ZM 103.4658,462.9966 c -0.4182,0.9061 -1.3243,1.7658 -1.9981 1.7658c -1.1617,-0.0000 -1.7193,-1.0223 -2.3698 -3.1830l -1.6496,-5.5064 l -3.3224,8.4338 c -0.6273,0.0465 -1.2081,0.1394 -1.7425 0.2788l -0.5808,-0.2788 l 5.1346,-10.1066 l -0.3020,-0.9990 c -0.9526,-3.2062 -1.8587,-3.6941 -2.5092 -3.6941c -0.5808,-0.0000 -1.1849,0.2323 -1.6496 0.5808c -0.1696,-0.0558 -0.3462,-0.0976 -0.3950 -0.3950c 0.6041,-0.8829 1.3475,-1.6031 2.2537 -1.6031c 0.6970,-0.0000 1.9981,0.2556 2.8113 2.9971l 2.4860,8.2479 c 0.9061,3.0668 1.1849,3.8103 1.9284 3.8103c 0.4879,-0.0000 0.9526,-0.1162 1.4405 -0.7202c 0.2625,0.0558 0.3880,0.1626 0.4647 0.3717Z"/></g></svg>