<?xml version="1.0" encoding="UTF-8"?>
<!DOCTYPE svg PUBLIC "-//W3C//DTD SVG 1.1//EN"
    "http://www.w3.org/Graphics/SVG/1.1/DTD/svg11.dtd"><svg xmlns="http://www.w3.org/2000/svg" height="800.0000" stroke-opacity="1" viewBox="0.0 0.0 800.0 800.0" font-size="1" width="800.0000" xmlns:xlink="http://www.w3.org/1999/xlink" stroke="rgb(0,0,0)" version="1.1"><defs></defs><g stroke-linejoin="miter" stroke-opacity="1.0" fill-opacity="1.0" stroke="rgb(0,0,0)" stroke-width="3.1999999999999993" fill="rgb(245,245,245)" stroke-linecap="butt" stroke-miterlimit="10.0"><path d="M 763.6364,763.6364 l -0.0000,-727.2727 h -727.2727 l -0.0000,727.2727 Z"/></g><g stroke-linejoin="miter" stroke-opacity="1.0" fill-opacity="0.0" stroke="rgb(0,0,0)" stroke-width="0.0" fill="rgb(0,0,0)" stroke-linecap="butt" stroke-miterlimit="10.0"><path d="M 708.5561,215.5080 v -53.4759 c 0.0000,-3.5441 -2.8730,-6.4171 -6.4171 -6.4171h -53.4759 c -3.5441,-0.0000 -6.4171,2.8730 -6.4171 6.4171v 53.4759 c -0.0000,3.5441 2.8730,6.4171 6.4171 6.4171h 53.4759 c 3.5441,0.0000 6.4171,-2.8730 6.4171 -6.4171Z"/></g><g stroke-linejoin="miter" stroke-opacity="1.0" fill-opacity="1.0" stroke="rgb(0,0,0)" stroke-width="0.0" fill="rgb(0,0,0)" stroke-linecap="butt" stroke-miterlimit="10.0"><path d="M 661.7281,198.8650 ZM 673.9025,197.3549 c -0.4182,0.9061 -1.3243,1.7658 -1.9981 1.7658c -1.1617,-0.0000 -1.7193,-1.0223 -2.3698 -3.1830l -1.6496,-5.5064 l -3.3224,8.4338 c -0.6273,0.0465 -1.2081,0.1394 -1.7425 0.2788l -0.5808,-0.2788 l 5.1346,-10.1066 l -0.3020,-0.9990 c -0.9526,-3.2062 -1.8587,-3.6941 -2.5092 -3.6941c -0.5808,-0.0000 -1.1849,0.2323 -1.6496 0.5808c -0.1696,-0.0558 -0.3462,-0.0976 -0.3950 -0.3950c 0.6041,-0.8829 1.3475,-1.6031 2.2537 -1.6031c 0.6970,-0.0000 1.9981,0.2556 2.8113 2.9971l 2.4860,8.2479 c 0.9061,3.0668 1.1849,3.8103 1.9284 3.8103c 0.4879,-0.0000 0.9526,-0.1162 1.4405 -0.7202c 0.2625,0.0558 0.3880,0.1626 0.4647 0.3717ZM 674.0651,198.8650 ZM 682.3595,199.0974 c -4.9952,-0.0000 -7.4347,-3.3967 -7.4347 -7.4347c 0.0000,-2.4233 0.9200,-4.6978 2.4628 -6.1104c 1.3708,-1.2546 3.0204,-1.9749 4.9952 -1.9749c 2.8577,-0.0000 3.9032,0.9293 5.0882 1.0455c 0.2323,1.2778 0.3950,2.3931 0.5111 3.6012c -0.2625,0.1394 -0.4879,0.2091 -0.7667 0.1162c -0.6041,-1.9981 -1.8819,-3.9032 -5.0882 -3.9032c -1.2081,-0.0000 -2.5557,0.6505 -3.7081 2.0678c -0.8480,1.0432 -1.3801,2.7114 -1.3801 4.7164c 0.0000,3.3921 2.1700,6.9236 5.2973 6.9236c 2.1607,-0.0000 3.7406,-0.7202 5.3902 -2.5325c 0.2556,-0.0000 0.4182,0.1394 0.5344 0.3485c -1.5799,2.0678 -3.6477,3.1365 -5.9013 3.1365Z"/></g><g stroke-linejoin="miter" stroke-opacity="1.0" fill-opacity="0.0" stroke="rgb(0,0,0)" stroke-width="0.0" fill="rgb(0,0,0)" stroke-linecap="butt" stroke-miterlimit="10.0"><path d="M 708.5561,493.5829 v -53.4759 c 0.0000,-3.5441 -2.8730,-6.4171 -6.4171 -6.4171h -53.4759 c -3.5441,-0.0000 -6.4171,2.8730 -6.4171 6.4171v 53.4759 c -0.0000,3.5441 2.8730,6.4171 6.4171 6.4171h 53.4759 c 3.5441,0.0000 6.4171,-2.8730 6.4171 -6.4171Z"/></g><g stroke-linejoin="miter" stroke-opacity="1.0" fill-opacity="1.0" stroke="rgb(0,0,0)" stroke-width="0.0" fill="rgb(0,0,0)" stroke-linecap="butt" stroke-miterlimit="10.0"><path d="M 655.3040,476.9399 ZM 667.4784,475.4297 c -0.4182,0.9061 -1.3243,1.7658 -1.9981 1.7658c -1.1617,-0.0000 -1.7193,-1.0223 -2.3698 -3.1830l -1.6496,-5.5064 l -3.3224,8.4338 c -0.6273,0.0465 -1.2081,0.1394 -1.7425 0.2788l -0.5808,-0.2788 l 5.1346,-10.1066 l -0.3020,-0.9990 c -0.9526,-3.2062 -1.8587,-3.6941 -2.5092 -3.6941c -0.5808,-0.0000 -1.1849,0.2323 -1.6496 0.5808c -0.1696,-0.0558 -0.3462,-0.0976 -0.3950 -0.3950c 0.6041,-0.8829 1.3475,-1.6031 2.2537 -1.6031c 0.6970,-0.0000 1.9981,0.2556 2.8113 2.9971l 2.4860,8.2479 c 0.9061,3.0668 1.1849,3.8103 1.9284 3.8103c 0.4879,-0.0000 0.9526,-0.1162 1.4405 -0.7202c 0.2625,0.0558 0.3880,0.1626 0.4647 0.3717ZM 667.6411,476.9399 ZM 672.0322,464.0685 v 5.4134 c 0.2556,0.0697 1.1849,0.1162 1.7658 0.1162c 2.2537,-0.0000 3.4618,-1.0223 3.4618 -3.5315c 0.0000,-2.9507 -1.6031,-3.4850 -3.2062 -3.4850c -1.6728,-0.0000 -2.0213,0.8132 -2.0213 1.4869ZM 672.0322,464.0685 ZM 670.0573,464.7887 c 0.0000,-1.9284 -0.3950,-2.0446 -2.0213 -2.1143c -0.1394,-0.1394 -0.1394,-0.6273 0.0000 -0.7667c 0.9293,0.0232 2.1445,0.0465 2.9971 0.0465c 0.9293,-0.0000 2.2932,-0.1626 3.1830 -0.1626c 4.2982,-0.0000 5.2043,2.4860 5.2043 3.8568c 0.0000,1.9749 -1.2778,4.7396 -5.5064 4.7396c -0.8132,-0.0000 -1.3708,-0.0697 -1.8819 -0.2323v 3.9497 c 0.0000,1.9284 0.5576,2.0213 2.3698 2.1143c 0.1394,0.1394 0.1394,0.6273 0.0000 0.7667c -1.1617,-0.0232 -2.5232,-0.0465 -3.3456 -0.0465c -0.8294,-0.0000 -1.9749,0.0232 -3.0204 0.0465c -0.1394,-0.1394 -0.1394,-0.6273 0.0000 -0.7667c 1.6263,-0.0697 2.0213,-0.1859 2.0213 -2.1143v -9.3167 ZM 680.2104,476.9399 ZM 694.7082,472.5488 c 0.0000,2.4163 -1.5799,4.6235 -4.4144 4.6235c -1.1849,-0.0000 -2.1143,-0.7202 -2.6254 -2.3931c -0.6273,1.6728 -1.3940,2.3931 -2.7183 2.3931c -2.0910,-0.0000 -3.9497,-1.6961 -3.9497 -4.7396c 0.0000,-2.7416 1.6263,-4.6467 4.2517 -5.7619c 0.1766,0.0929 0.2788,0.3183 0.3020 0.5344c -1.5102,0.9526 -2.6486,2.0446 -2.6486 4.8790c 0.0000,2.6022 0.6273,4.2285 2.3466 4.2285c 0.8596,-0.0000 1.3940,-0.6970 2.1143 -2.3466c -0.3020,-0.7667 -0.3485,-1.6263 -0.3485 -2.0910c 0.0000,-0.7202 0.2556,-1.5334 0.8596 -1.5334c 0.6273,-0.0000 0.6970,0.3020 0.6970 0.8596c 0.0000,0.5576 -0.2091,1.8355 -0.5576 2.6951c 0.6970,1.6031 1.5102,2.4163 2.4395 2.4163c 1.6728,-0.0000 2.3466,-0.8596 2.3466 -3.4153c 0.0000,-1.6961 -0.3950,-3.8568 -2.8113 -5.6922c 0.0232,-0.1882 0.0441,-0.4670 0.3485 -0.5344c 2.1840,1.0455 4.3679,3.1830 4.3679 5.8781Z"/></g><g stroke-linejoin="miter" stroke-opacity="1.0" fill-opacity="0.0" stroke="rgb(0,0,0)" stroke-width="0.0" fill="rgb(0,0,0)" stroke-linecap="butt" stroke-miterlimit="10.0"><path d="M 387.7005,215.5080 v -53.4759 c 0.0000,-3.5441 -2.8730,-6.4171 -6.4171 -6.4171h -53.4759 c -3.5441,-0.0000 -6.4171,2.8730 -6.4171 6.4171v 53.4759 c -0.0000,3.5441 2.8730,6.4171 6.4171 6.4171h 53.4759 c 3.5441,0.0000 6.4171,-2.8730 6.4171 -6.4171Z"/></g><g stroke-linejoin="miter" stroke-opacity="1.0" fill-opacity="1.0" stroke="rgb(0,0,0)" stroke-width="0.0" fill="rgb(0,0,0)" stroke-linecap="butt" stroke-miterlimit="10.0"><path d="M 340.7331,198.8650 ZM 352.9075,197.3549 c -0.4182,0.9061 -1.3243,1.7658 -1.9981 1.7658c -1.1617,-0.0000 -1.7193,-1.0223 -2.3698 -3.1830l -1.6496,-5.5064 l -3.3224,8.4338 c -0.6273,0.0465 -1.2081,0.1394 -1.7425 0.2788l -0.5808,-0.2788 l 5.1346,-10.1066 l -0.3020,-0.9990 c -0.9526,-3.2062 -1.8587,-3.6941 -2.5092 -3.6941c -0.5808,-0.0000 -1.1849,0.2323 -1.6496 0.5808c -0.1696,-0.0558 -0.3462,-0.0976 -0.3950 -0.3950c 0.6041,-0.8829 1.3475,-1.6031 2.2537 -1.6031c 0.6970,-0.0000 1.9981,0.2556 2.8113 2.9971l 2.4860,8.2479 c 0.9061,3.0668 1.1849,3.8103 1.9284 3.8103c 0.4879,-0.0000 0.9526,-0.1162 1.4405 -0.7202c 0.2625,0.0558 0.3880,0.1626 0.4647 0.3717ZM 353.0701,198.8650 ZM 367.5679,194.4739 c 0.0000,2.4163 -1.5799,4.6235 -4.4144 4.6235c -1.1849,-0.0000 -2.1143,-0.7202 -2.6254 -2.3931c -0.6273,1.6728 -1.3940,2.3931 -2.7183 2.3931c -2.0910,-0.0000 -3.9497,-1.6961 -3.9497 -4.7396c 0.0000,-2.7416 1.6263,-4.6467 4.2517 -5.7619c 0.1766,0.0929 0.2788,0.3183 0.3020 0.5344c -1.5102,0.9526 -2.6486,2.0446 -2.6486 4.8790c 0.0000,2.6022 0.6273,4.2285 2.3466 4.2285c 0.8596,-0.0000 1.3940,-0.6970 2.1143 -2.3466c -0.3020,-0.7667 -0.3485,-1.6263 -0.3485 -2.0910c 0.0000,-0.7202 0.2556,-1.5334 0.8596 -1.5334c 0.6273,-0.0000 0.6970,0.3020 0.6970 0.8596c 0.0000,0.5576 -0.2091,1.8355 -0.5576 2.6951c 0.6970,1.6031 1.5102,2.4163 2.4395 2.4163c 1.6728,-0.0000 2.3466,-0.8596 2.3466 -3.4153c 0.0000,-1.6961 -0.3950,-3.8568 -2.8113 -5.6922c 0.0232,-0.1882 0.0441,-0.4670 0.3485 -0.5344c 2.1840,1.0455 4.3679,3.1830 4.3679 5.8781Z"/></g><g stroke-linejoin="miter" stroke-opacity="1.0" fill-opacity="0.0" stroke="rgb(0,0,0)" stroke-width="0.0" fill="rgb(0,0,0)" stroke-linecap="butt" stroke-miterlimit="10.0"><path d="M 489.3048,359.8930 v -64.1711 c 0.0000,-3.5441 -2.8730,-6.4171 -6.4171 -6.4171h -64.1711 c -3.5441,-0.0000 -6.4171,2.8730 -6.4171 6.4171v 64.1711 c -0.0000,3.5441 2.8730,6.4171 6.4171 6.4171h 64.1711 c 3.5441,0.0000 6.4171,-2.8730 6.4171 -6.4171Z"/></g><g stroke-linejoin="miter" stroke-opacity="1.0" fill-opacity="1.0" stroke="rgb(0,0,0)" stroke-width="0.0" fill="rgb(0,0,0)" stroke-linecap="butt" stroke-miterlimit="10.0"><path d="M 426.9955,341.2675 ZM 443.2280,339.2539 c -0.5576,1.2081 -1.7658,2.3543 -2.6641 2.3543c -1.5489,-0.0000 -2.2924,-1.3630 -3.1598 -4.2440l -2.1994,-7.3418 l -4.4299,11.2450 c -0.8364,0.0620 -1.6109,0.1859 -2.3234 0.3717l -0.7745,-0.3717 l 6.8462,-13.4755 l -0.4027,-1.3321 c -1.2701,-4.2750 -2.4782,-4.9255 -3.3456 -4.9255c -0.7745,-0.0000 -1.5799,0.3098 -2.1994 0.7745c -0.2261,-0.0743 -0.4616,-0.1301 -0.5266 -0.5266c 0.8054,-1.1772 1.7967,-2.1375 3.0049 -2.1375c 0.9293,-0.0000 2.6641,0.3408 3.7483 3.9962l 3.3147,10.9972 c 1.2081,4.0891 1.5799,5.0804 2.5712 5.0804c 0.6505,-0.0000 1.2701,-0.1549 1.9206 -0.9603c 0.3501,0.0743 0.5173,0.2168 0.6196 0.4956ZM 443.4448,341.2675 ZM 449.2997,324.1056 v 7.2179 c 0.3408,0.0929 1.5799,0.1549 2.3543 0.1549c 3.0049,-0.0000 4.6157,-1.3630 4.6157 -4.7087c 0.0000,-3.9342 -2.1375,-4.6467 -4.2750 -4.6467c -2.2304,-0.0000 -2.6951,1.0842 -2.6951 1.9826ZM 449.2997,324.1056 ZM 446.6666,325.0659 c 0.0000,-2.5712 -0.5266,-2.7261 -2.6951 -2.8190c -0.1859,-0.1859 -0.1859,-0.8364 0.0000 -1.0223c 1.2391,0.0310 2.8593,0.0620 3.9962 0.0620c 1.2391,-0.0000 3.0575,-0.2168 4.2440 -0.2168c 5.7309,-0.0000 6.9391,3.3147 6.9391 5.1424c 0.0000,2.6331 -1.7038,6.3195 -7.3418 6.3195c -1.0842,-0.0000 -1.8277,-0.0929 -2.5092 -0.3098v 5.2663 c 0.0000,2.5712 0.7435,2.6951 3.1598 2.8190c 0.1859,0.1859 0.1859,0.8364 0.0000 1.0223c -1.5489,-0.0310 -3.3642,-0.0620 -4.4608 -0.0620c -1.1059,-0.0000 -2.6331,0.0310 -4.0272 0.0620c -0.1859,-0.1859 -0.1859,-0.8364 0.0000 -1.0223c 2.1685,-0.0929 2.6951,-0.2478 2.6951 -2.8190v -12.4222 ZM 460.2040,341.2675 ZM 462.0937,326.7697 c 0.0000,-1.8587 2.1375,-4.3989 5.5761 -4.3989c 2.5092,-0.0000 5.2353,1.3630 5.2353 4.7087c 0.0000,2.3543 -1.3321,3.7174 -3.0978 5.4212l -3.1288,3.0049 c -0.1549,0.1549 -2.2924,2.2614 -2.2924 3.7483h 5.5141 c 1.1152,-0.0000 1.6418,-0.7745 2.1685 -2.9739c 0.3098,-0.0620 0.7125,-0.0000 0.8984 0.1549c -0.0310,0.9293 -0.3408,3.2527 -0.7435 4.8945c 0.0000,-0.0000 -1.4250,-0.0620 -2.4163 -0.0620h -5.4212 c -0.9913,-0.0000 -2.5712,0.0620 -2.5712 0.0620c 0.0000,-1.8277 0.4956,-3.3147 3.5315 -6.4125l 2.2924,-2.2614 c 1.8277,-1.8587 2.5402,-3.4695 2.5402 -5.4521c 0.0000,-2.9739 -1.5799,-3.7483 -2.6951 -3.7483c -2.2614,-0.0000 -3.0668,1.1152 -3.0668 1.8897c 0.0000,0.2478 0.1859,0.5266 0.2478 0.7435c 0.0620,0.2168 0.1239,0.4027 0.1239 0.6505c 0.0000,0.6846 -0.9293,1.2391 -1.4560 1.2391c -0.6505,-0.0000 -1.2391,-0.5576 -1.2391 -1.2081Z"/></g><g stroke-linejoin="miter" stroke-opacity="1.0" fill-opacity="0.0" stroke="rgb(0,0,0)" stroke-width="0.0" fill="rgb(0,0,0)" stroke-linecap="butt" stroke-miterlimit="10.0"><path d="M 168.4492,359.8930 v -64.1711 c 0.0000,-3.5441 -2.8730,-6.4171 -6.4171 -6.4171h -64.1711 c -3.5441,-0.0000 -6.4171,2.8730 -6.4171 6.4171v 64.1711 c -0.0000,3.5441 2.8730,6.4171 6.4171 6.4171h 64.1711 c 3.5441,0.0000 6.4171,-2.8730 6.4171 -6.4171Z"/></g><g stroke-linejoin="miter" stroke-opacity="1.0" fill-opacity="1.0" stroke="rgb(0,0,0)" stroke-width="0.0" fill="rgb(0,0,0)" stroke-linecap="butt" stroke-miterlimit="10.0"><path d="M 114.5194,341.2675 ZM 130.7520,339.2539 c -0.5576,1.2081 -1.7658,2.3543 -2.6641 2.3543c -1.5489,-0.0000 -2.2924,-1.3630 -3.1598 -4.2440l -2.1994,-7.3418 l -4.4299,11.2450 c -0.8364,0.0620 -1.6109,0.1859 -2.3234 0.3717l -0.7745,-0.3717 l 6.8462,-13.4755 l -0.4027,-1.3321 c -1.2701,-4.2750 -2.4782,-4.9255 -3.3456 -4.9255c -0.7745,-0.0000 -1.5799,0.3098 -2.1994 0.7745c -0.2261,-0.0743 -0.4616,-0.1301 -0.5266 -0.5266c 0.8054,-1.1772 1.7967,-2.1375 3.0049 -2.1375c 0.9293,-0.0000 2.6641,0.3408 3.7483 3.9962l 3.3147,10.9972 c 1.2081,4.0891 1.5799,5.0804 2.5712 5.0804c 0.6505,-0.0000 1.2701,-0.1549 1.9206 -0.9603c 0.3501,0.0743 0.5173,0.2168 0.6196 0.4956ZM 130.9688,341.2675 ZM 132.8585,326.7697 c 0.0000,-1.8587 2.1375,-4.3989 5.5761 -4.3989c 2.5092,-0.0000 5.2353,1.3630 5.2353 4.7087c 0.0000,2.3543 -1.3321,3.7174 -3.0978 5.4212l -3.1288,3.0049 c -0.1549,0.1549 -2.2924,2.2614 -2.2924 3.7483h 5.5141 c 1.1152,-0.0000 1.6418,-0.7745 2.1685 -2.9739c 0.3098,-0.0620 0.7125,-0.0000 0.8984 0.1549c -0.0310,0.9293 -0.3408,3.2527 -0.7435 4.8945c 0.0000,-0.0000 -1.4250,-0.0620 -2.4163 -0.0620h -5.4212 c -0.9913,-0.0000 -2.5712,0.0620 -2.5712 0.0620c 0.0000,-1.8277 0.4956,-3.3147 3.5315 -6.4125l 2.2924,-2.2614 c 1.8277,-1.8587 2.5402,-3.4695 2.5402 -5.4521c 0.0000,-2.9739 -1.5799,-3.7483 -2.6951 -3.7483c -2.2614,-0.0000 -3.0668,1.1152 -3.0668 1.8897c 0.0000,0.2478 0.1859,0.5266 0.2478 0.7435c 0.0620,0.2168 0.1239,0.4027 0.1239 0.6505c 0.0000,0.6846 -0.9293,1.2391 -1.4560 1.2391c -0.6505,-0.0000 -1.2391,-0.5576 -1.2391 -1.2081Z"/></g><g stroke-linejoin="miter" stroke-opacity="1.0" fill-opacity="0.0" stroke="rgb(0,0,0)" stroke-width="0.0" fill="rgb(0,0,0)" stroke-linecap="butt" stroke-miterlimit="10.0"><path d="M 387.7005,493.5829 v -53.4759 c 0.0000,-3.5441 -2.8730,-6.4171 -6.4171 -6.4171h -53.4759 c -3.5441,-0.0000 -6.4171,2.8730 -6.4171 6.4171v 53.4759 c -0.0000,3.5441 2.8730,6.4171 6.4171 6.4171h 53.4759 c 3.5441,0.0000 6.4171,-2.8730 6.4171 -6.4171Z"/></g><g stroke-linejoin="miter" stroke-opacity="1.0" fill-opacity="1.0" stroke="rgb(0,0,0)" stroke-width="0.0" fill="rgb(0,0,0)" stroke-linecap="butt" stroke-miterlimit="10.0"><path d="M 340.7331,476.9399 ZM 352.9075,475.4297 c -0.4182,0.9061 -1.3243,1.7658 -1.9981 1.7658c -1.1617,-0.0000 -1.7193,-1.0223 -2.3698 -3.1830l -1.6496,-5.5064 l -3.3224,8.4338 c -0.6273,0.0465 -1.2081,0.1394 -1.7425 0.2788l -0.5808,-0.2788 l 5.1346,-10.1066 l -0.3020,-0.9990 c -0.9526,-3.2062 -1.8587,-3.6941 -2.5092 -3.6941c -0.5808,-0.0000 -1.1849,0.2323 -1.6496 0.5808c -0.1696,-0.0558 -0.3462,-0.0976 -0.3950 -0.3950c 0.6041,-0.8829 1.3475,-1.6031 2.2537 -1.6031c 0.6970,-0.0000 1.9981,0.2556 2.8113 2.9971l 2.4860,8.2479 c 0.9061,3.0668 1.1849,3.8103 1.9284 3.8103c 0.4879,-0.0000 0.9526,-0.1162 1.4405 -0.7202c 0.2625,0.0558 0.3880,0.1626 0.4647 0.3717ZM 353.0701,476.9399 ZM 367.5679,472.5488 c 0.0000,2.4163 -1.5799,4.6235 -4.4144 4.6235c -1.1849,-0.0000 -2.1143,-0.7202 -2.6254 -2.3931c -0.6273,1.6728 -1.3940,2.3931 -2.7183 2.3931c -2.0910,-0.0000 -3.9497,-1.6961 -3.9497 -4.7396c 0.0000,-2.7416 1.6263,-4.6467 4.2517 -5.7619c 0.1766,0.0929 0.2788,0.3183 0.3020 0.5344c -1.5102,0.9526 -2.6486,2.0446 -2.6486 4.8790c 0.0000,2.6022 0.6273,4.2285 2.3466 4.2285c 0.8596,-0.0000 1.3940,-0.6970 2.1143 -2.3466c -0.3020,-0.7667 -0.3485,-1.6263 -0.3485 -2.0910c 0.0000,-0.7202 0.2556,-1.5334 0.8596 -1.5334c 0.6273,-0.0000 0.6970,0.3020 0.6970 0.8596c 0.0000,0.5576 -0.2091,1.8355 -0.5576 2.6951c 0.6970,1.6031 1.5102,2.4163 2.4395 2.4163c 1.6728,-0.0000 2.3466,-0.8596 2.3466 -3.4153c 0.0000,-1.6961 -0.3950,-3.8568 -2.8113 -5.6922c 0.0232,-0.1882 0.0441,-0.4670 0.3485 -0.5344c 2.1840,1.0455 4.3679,3.1830 4.3679 5.8781Z"/></g><g stroke-linejoin="miter" stroke-opacity="1.0" fill-opacity="0.0" stroke="rgb(0,0,0)" stroke-width="0.0" fill="rgb(0,0,0)" stroke-linecap="butt" stroke-miterlimit="10.0"><path d="M 489.3048,637.9679 v -64.1711 c 0.0000,-3.5441 -2.8730,-6.4171 -6.4171 -6.4171h -64.1711 c -3.5441,-0.0000 -6.4171,2.8730 -6.4171 6.4171v 64.1711 c -0.0000,3.5441 2.8730,6.4171 6.4171 6.4171h 64.1711 c 3.5441,0.0000 6.4171,-2.8730 6.4171 -6.4171Z"/></g><g stroke-linejoin="miter" stroke-opacity="1.0" fill-opacity="1.0" stroke="rgb(0,0,0)" stroke-width="0.0" fill="rgb(0,0,0)" stroke-linecap="butt" stroke-miterlimit="10.0"><path d="M 434.1979,619.3423 ZM 450.4304,617.3288 c -0.5576,1.2081 -1.7658,2.3543 -2.6641 2.3543c -1.5489,-0.0000 -2.2924,-1.3630 -3.1598 -4.2440l -2.1994,-7.3418 l -4.4299,11.2450 c -0.8364,0.0620 -1.6109,0.1859 -2.3234 0.3717l -0.7745,-0.3717 l 6.8462,-13.4755 l -0.4027,-1.3321 c -1.2701,-4.2750 -2.4782,-4.9255 -3.3456 -4.9255c -0.7745,-0.0000 -1.5799,0.3098 -2.1994 0.7745c -0.2261,-0.0743 -0.4616,-0.1301 -0.5266 -0.5266c 0.8054,-1.1772 1.7967,-2.1375 3.0049 -2.1375c 0.9293,-0.0000 2.6641,0.3408 3.7483 3.9962l 3.3147,10.9972 c 1.2081,4.0891 1.5799,5.0804 2.5712 5.0804c 0.6505,-0.0000 1.2701,-0.1549 1.9206 -0.9603c 0.3501,0.0743 0.5173,0.2168 0.6196 0.4956ZM 450.6472,619.3423 ZM 456.5021,602.1805 v 7.2179 c 0.3408,0.0929 1.5799,0.1549 2.3543 0.1549c 3.0049,-0.0000 4.6157,-1.3630 4.6157 -4.7087c 0.0000,-3.9342 -2.1375,-4.6467 -4.2750 -4.6467c -2.2304,-0.0000 -2.6951,1.0842 -2.6951 1.9826ZM 456.5021,602.1805 ZM 453.8690,603.1408 c 0.0000,-2.5712 -0.5266,-2.7261 -2.6951 -2.8190c -0.1859,-0.1859 -0.1859,-0.8364 0.0000 -1.0223c 1.2391,0.0310 2.8593,0.0620 3.9962 0.0620c 1.2391,-0.0000 3.0575,-0.2168 4.2440 -0.2168c 5.7309,-0.0000 6.9391,3.3147 6.9391 5.1424c 0.0000,2.6331 -1.7038,6.3195 -7.3418 6.3195c -1.0842,-0.0000 -1.8277,-0.0929 -2.5092 -0.3098v 5.2663 c 0.0000,2.5712 0.7435,2.6951 3.1598 2.8190c 0.1859,0.1859 0.1859,0.8364 0.0000 1.0223c -1.5489,-0.0310 -3.3642,-0.0620 -4.4608 -0.0620c -1.1059,-0.0000 -2.6331,0.0310 -4.0272 0.0620c -0.1859,-0.1859 -0.1859,-0.8364 0.0000 -1.0223c 2.1685,-0.0929 2.6951,-0.2478 2.6951 -2.8190v -12.4222 Z"/></g><g stroke-linejoin="miter" stroke-opacity="1.0" fill-opacity="0.0" stroke="rgb(0,0,0)" stroke-width="0.0" fill="rgb(0,0,0)" stroke-linecap="butt" stroke-miterlimit="10.0"><path d="M 168.4492,637.9679 v -64.1711 c 0.0000,-3.5441 -2.8730,-6.4171 -6.4171 -6.4171h -64.1711 c -3.5441,-0.0000 -6.4171,2.8730 -6.4171 6.4171v 64.1711 c -0.0000,3.5441 2.8730,6.4171 6.4171 6.4171h 64.1711 c 3.5441,0.0000 6.4171,-2.8730 6.4171 -6.4171Z"/></g><g stroke-linejoin="miter" stroke-opacity="1.0" fill-opacity="1.0" stroke="rgb(0,0,0)" stroke-width="0.0" fill="rgb(0,0,0)" stroke-linecap="butt" stroke-miterlimit="10.0"><path d="M 121.7218,619.3423 ZM 137.9544,617.3288 c -0.5576,1.2081 -1.7658,2.3543 -2.6641 2.3543c -1.5489,-0.0000 -2.2924,-1.3630 -3.1598 -4.2440l -2.1994,-7.3418 l -4.4299,11.2450 c -0.8364,0.0620 -1.6109,0.1859 -2.3234 0.3717l -0.7745,-0.3717 l 6.8462,-13.4755 l -0.4027,-1.3321 c -1.2701,-4.2750 -2.4782,-4.9255 -3.3456 -4.9255c -0.7745,-0.0000 -1.5799,0.3098 -2.1994 0.7745c -0.2261,-0.0743 -0.4616,-0.1301 -0.5266 -0.5266c 0.8054,-1.1772 1.7967,-2.1375 3.0049 -2.1375c 0.9293,-0.0000 2.6641,0.3408 3.7483 3.9962l 3.3147,10.9972 c 1.2081,4.0891 1.5799,5.0804 2.5712 5.0804c 0.6505,-0.0000 1.2701,-0.1549 1.9206 -0.9603c 0.3501,0.0743 0.5173,0.2168 0.6196 0.4956Z"/></g><g stroke-linejoin="miter" stroke-opacity="1.0" fill-opacity="0.0" stroke="rgb(0,0,0)" stroke-width="1.5999999999999996" fill="rgb(0,0,0)" stroke-linecap="butt" stroke-miterlimit="10.0"><path d="M 168.4492,605.8824 h 225.4503 "/></g><g stroke-linejoin="miter" stroke-opacity="1.0" fill-opacity="1.0" stroke="rgb(0,0,0)" stroke-width="0.0" fill="rgb(0,0,0)" stroke-linecap="butt" stroke-miterlimit="10.0"></g><g stroke-linejoin="miter" stroke-opacity="1.0" fill-opacity="1.0" stroke="rgb(0,0,0)" stroke-width="0.0" fill="rgb(0,0,0)" stroke-linecap="butt" stroke-miterlimit="10.0"></g><g stroke-linejoin="miter" stroke-opacity="1.0" fill-opacity="1.0" stroke="rgb(0,0,0)" stroke-width="0.0" fill="rgb(0,0,0)" stroke-linecap="butt" stroke-miterlimit="10.0"><path d="M 412.2995,605.8824 l -21.6834,-7.0454 l 3.7040,7.0454 l -3.7040,7.0454 Z"/></g><g stroke-linejoin="miter" stroke-opacity="1.0" fill-opacity="1.0" stroke="rgb(0,0,0)" stroke-width="0.0" fill="rgb(0,0,0)" stroke-linecap="butt" stroke-miterlimit="10.0"><path d="M 394.3201,605.8824 h -0.4206 v -0.8000 l 0.4206,0.8000 h -0.4206 v 0.8000 Z"/></g><g stroke-linejoin="miter" stroke-opacity="1.0" fill-opacity="0.0" stroke="rgb(0,0,0)" stroke-width="1.5999999999999996" fill="rgb(0,0,0)" stroke-linecap="butt" stroke-miterlimit="10.0"><path d="M 168.4492,582.0474 l 137.2963,-84.9929 "/></g><g stroke-linejoin="miter" stroke-opacity="1.0" fill-opacity="1.0" stroke="rgb(0,0,0)" stroke-width="0.0" fill="rgb(0,0,0)" stroke-linecap="butt" stroke-miterlimit="10.0"></g><g stroke-linejoin="miter" stroke-opacity="1.0" fill-opacity="1.0" stroke="rgb(0,0,0)" stroke-width="0.0" fill="rgb(0,0,0)" stroke-linecap="butt" stroke-miterlimit="10.0"></g><g stroke-linejoin="miter" stroke-opacity="1.0" fill-opacity="1.0" stroke="rgb(0,0,0)" stroke-width="0.0" fill="rgb(0,0,0)" stroke-linecap="butt" stroke-miterlimit="10.0"><path d="M 321.3904,487.3695 l -22.1450,5.4227 l 6.8577,4.0408 l 0.5590,7.9400 Z"/></g><g stroke-linejoin="miter" stroke-opacity="1.0" fill-opacity="1.0" stroke="rgb(0,0,0)" stroke-width="0.0" fill="rgb(0,0,0)" stroke-linecap="butt" stroke-miterlimit="10.0"><path d="M 306.1031,496.8330 l -0.3576,0.2214 l -0.4211,-0.6802 l 0.7787,0.4588 l -0.3576,0.2214 l 0.4211,0.6802 Z"/></g><g stroke-linejoin="miter" stroke-opacity="1.0" fill-opacity="0.0" stroke="rgb(0,0,0)" stroke-width="1.5999999999999996" fill="rgb(0,0,0)" stroke-linecap="butt" stroke-miterlimit="10.0"><path d="M 129.9465,567.3797 l 0.0000,-182.6695 "/></g><g stroke-linejoin="miter" stroke-opacity="1.0" fill-opacity="1.0" stroke="rgb(0,0,0)" stroke-width="0.0" fill="rgb(0,0,0)" stroke-linecap="butt" stroke-miterlimit="10.0"></g><g stroke-linejoin="miter" stroke-opacity="1.0" fill-opacity="1.0" stroke="rgb(0,0,0)" stroke-width="0.0" fill="rgb(0,0,0)" stroke-linecap="butt" stroke-miterlimit="10.0"></g><g stroke-linejoin="miter" stroke-opacity="1.0" fill-opacity="1.0" stroke="rgb(0,0,0)" stroke-width="0.0" fill="rgb(0,0,0)" stroke-linecap="butt" stroke-miterlimit="10.0"><path d="M 129.9465,366.3102 l -7.0454,21.6834 l 7.0454,-3.7040 l 7.0454,3.7040 Z"/></g><g stroke-linejoin="miter" stroke-opacity="1.0" fill-opacity="1.0" stroke="rgb(0,0,0)" stroke-width="0.0" fill="rgb(0,0,0)" stroke-linecap="butt" stroke-miterlimit="10.0"><path d="M 129.9465,384.2896 l -0.0000,0.4206 l -0.8000,-0.0000 l 0.8000,-0.4206 l -0.0000,0.4206 l 0.8000,0.0000 Z"/></g><g stroke-linejoin="miter" stroke-opacity="1.0" fill-opacity="0.0" stroke="rgb(0,0,0)" stroke-width="1.5999999999999996" fill="rgb(0,0,0)" stroke-linecap="butt" stroke-miterlimit="10.0"><path d="M 450.8021,567.3797 l 0.0000,-182.6695 "/></g><g stroke-linejoin="miter" stroke-opacity="1.0" fill-opacity="1.0" stroke="rgb(0,0,0)" stroke-width="0.0" fill="rgb(0,0,0)" stroke-linecap="butt" stroke-miterlimit="10.0"></g><g stroke-linejoin="miter" stroke-opacity="1.0" fill-opacity="1.0" stroke="rgb(0,0,0)" stroke-width="0.0" fill="rgb(0,0,0)" stroke-linecap="butt" stroke-miterlimit="10.0"></g><g stroke-linejoin="miter" stroke-opacity="1.0" fill-opacity="1.0" stroke="rgb(0,0,0)" stroke-width="0.0" fill="rgb(0,0,0)" stroke-linecap="butt" stroke-miterlimit="10.0"><path d="M 450.8021,366.3102 l -7.0454,21.6834 l 7.0454,-3.7040 l 7.0454,3.7040 Z"/></g><g stroke-linejoin="miter" stroke-opacity="1.0" fill-opacity="1.0" stroke="rgb(0,0,0)" stroke-width="0.0" fill="rgb(0,0,0)" stroke-linecap="butt" stroke-miterlimit="10.0"><path d="M 450.8021,384.2896 l -0.0000,0.4206 l -0.8000,-0.0000 l 0.8000,-0.4206 l -0.0000,0.4206 l 0.8000,0.0000 Z"/></g><g stroke-linejoin="miter" stroke-opacity="1.0" fill-opacity="0.0" stroke="rgb(0,0,0)" stroke-width="1.5999999999999996" fill="rgb(0,0,0)" stroke-linecap="butt" stroke-miterlimit="10.0"><path d="M 489.3048,582.0474 l 137.2963,-84.9929 "/></g><g stroke-linejoin="miter" stroke-opacity="1.0" fill-opacity="1.0" stroke="rgb(0,0,0)" stroke-width="0.0" fill="rgb(0,0,0)" stroke-linecap="butt" stroke-miterlimit="10.0"></g><g stroke-linejoin="miter" stroke-opacity="1.0" fill-opacity="1.0" stroke="rgb(0,0,0)" stroke-width="0.0" fill="rgb(0,0,0)" stroke-linecap="butt" stroke-miterlimit="10.0"></g><g stroke-linejoin="miter" stroke-opacity="1.0" fill-opacity="1.0" stroke="rgb(0,0,0)" stroke-width="0.0" fill="rgb(0,0,0)" stroke-linecap="butt" stroke-miterlimit="10.0"><path d="M 642.2460,487.3695 l -22.1450,5.4227 l 6.8577,4.0408 l 0.5590,7.9400 Z"/></g><g stroke-linejoin="miter" stroke-opacity="1.0" fill-opacity="1.0" stroke="rgb(0,0,0)" stroke-width="0.0" fill="rgb(0,0,0)" stroke-linecap="butt" stroke-miterlimit="10.0"><path d="M 626.9587,496.8330 l -0.3576,0.2214 l -0.4211,-0.6802 l 0.7787,0.4588 l -0.3576,0.2214 l 0.4211,0.6802 Z"/></g><g stroke-linejoin="miter" stroke-opacity="1.0" fill-opacity="0.0" stroke="rgb(0,0,0)" stroke-width="1.5999999999999996" fill="rgb(0,0,0)" stroke-linecap="butt" stroke-miterlimit="10.0"><path d="M 354.5455,433.6898 l 0.0000,-193.3647 "/></g><g stroke-linejoin="miter" stroke-opacity="1.0" fill-opacity="1.0" stroke="rgb(0,0,0)" stroke-width="0.0" fill="rgb(0,0,0)" stroke-linecap="butt" stroke-miterlimit="10.0"></g><g stroke-linejoin="miter" stroke-opacity="1.0" fill-opacity="1.0" stroke="rgb(0,0,0)" stroke-width="0.0" fill="rgb(0,0,0)" stroke-linecap="butt" stroke-miterlimit="10.0"></g><g stroke-linejoin="miter" stroke-opacity="1.0" fill-opacity="1.0" stroke="rgb(0,0,0)" stroke-width="0.0" fill="rgb(0,0,0)" stroke-linecap="butt" stroke-miterlimit="10.0"><path d="M 354.5455,221.9251 l -7.0454,21.6834 l 7.0454,-3.7040 l 7.0454,3.7040 Z"/></g><g stroke-linejoin="miter" stroke-opacity="1.0" fill-opacity="1.0" stroke="rgb(0,0,0)" stroke-width="0.0" fill="rgb(0,0,0)" stroke-linecap="butt" stroke-miterlimit="10.0"><path d="M 354.5455,239.9045 l -0.0000,0.4206 l -0.8000,-0.0000 l 0.8000,-0.4206 l -0.0000,0.4206 l 0.8000,0.0000 Z"/></g><g stroke-linejoin="miter" stroke-opacity="1.0" fill-opacity="0.0" stroke="rgb(0,0,0)" stroke-width="1.5999999999999996" fill="rgb(0,0,0)" stroke-linecap="butt" stroke-miterlimit="10.0"><path d="M 387.7005,466.8449 h 236.1455 "/></g><g stroke-linejoin="miter" stroke-opacity="1.0" fill-opacity="1.0" stroke="rgb(0,0,0)" stroke-width="0.0" fill="rgb(0,0,0)" stroke-linecap="butt" stroke-miterlimit="10.0"></g><g stroke-linejoin="miter" stroke-opacity="1.0" fill-opacity="1.0" stroke="rgb(0,0,0)" stroke-width="0.0" fill="rgb(0,0,0)" stroke-linecap="butt" stroke-miterlimit="10.0"></g><g stroke-linejoin="miter" stroke-opacity="1.0" fill-opacity="1.0" stroke="rgb(0,0,0)" stroke-width="0.0" fill="rgb(0,0,0)" stroke-linecap="butt" stroke-miterlimit="10.0"><path d="M 642.2460,466.8449 l -21.6834,-7.0454 l 3.7040,7.0454 l -3.7040,7.0454 Z"/></g><g stroke-linejoin="miter" stroke-opacity="1.0" fill-opacity="1.0" stroke="rgb(0,0,0)" stroke-width="0.0" fill="rgb(0,0,0)" stroke-linecap="butt" stroke-miterlimit="10.0"><path d="M 624.2666,466.8449 h -0.4206 v -0.8000 l 0.4206,0.8000 h -0.4206 v 0.8000 Z"/></g><g stroke-linejoin="miter" stroke-opacity="1.0" fill-opacity="0.0" stroke="rgb(0,0,0)" stroke-width="1.5999999999999996" fill="rgb(0,0,0)" stroke-linecap="butt" stroke-miterlimit="10.0"><path d="M 168.4492,327.8075 h 225.4503 "/></g><g stroke-linejoin="miter" stroke-opacity="1.0" fill-opacity="1.0" stroke="rgb(0,0,0)" stroke-width="0.0" fill="rgb(0,0,0)" stroke-linecap="butt" stroke-miterlimit="10.0"></g><g stroke-linejoin="miter" stroke-opacity="1.0" fill-opacity="1.0" stroke="rgb(0,0,0)" stroke-width="0.0" fill="rgb(0,0,0)" stroke-linecap="butt" stroke-miterlimit="10.0"></g><g stroke-linejoin="miter" stroke-opacity="1.0" fill-opacity="1.0" stroke="rgb(0,0,0)" stroke-width="0.0" fill="rgb(0,0,0)" stroke-linecap="butt" stroke-miterlimit="10.0"><path d="M 412.2995,327.8075 l -21.6834,-7.0454 l 3.7040,7.0454 l -3.7040,7.0454 Z"/></g><g stroke-linejoin="miter" stroke-opacity="1.0" fill-opacity="1.0" stroke="rgb(0,0,0)" stroke-width="0.0" fill="rgb(0,0,0)" stroke-linecap="butt" stroke-miterlimit="10.0"><path d="M 394.3201,327.8075 h -0.4206 v -0.8000 l 0.4206,0.8000 h -0.4206 v 0.8000 Z"/></g><g stroke-linejoin="miter" stroke-opacity="1.0" fill-opacity="0.0" stroke="rgb(0,0,0)" stroke-width="1.5999999999999996" fill="rgb(0,0,0)" stroke-linecap="butt" stroke-miterlimit="10.0"><path d="M 168.4492,303.9725 l 137.2963,-84.9929 "/></g><g stroke-linejoin="miter" stroke-opacity="1.0" fill-opacity="1.0" stroke="rgb(0,0,0)" stroke-width="0.0" fill="rgb(0,0,0)" stroke-linecap="butt" stroke-miterlimit="10.0"></g><g stroke-linejoin="miter" stroke-opacity="1.0" fill-opacity="1.0" stroke="rgb(0,0,0)" stroke-width="0.0" fill="rgb(0,0,0)" stroke-linecap="butt" stroke-miterlimit="10.0"></g><g stroke-linejoin="miter" stroke-opacity="1.0" fill-opacity="1.0" stroke="rgb(0,0,0)" stroke-width="0.0" fill="rgb(0,0,0)" stroke-linecap="butt" stroke-miterlimit="10.0"><path d="M 321.3904,209.2946 l -22.1450,5.4227 l 6.8577,4.0408 l 0.5590,7.9400 Z"/></g><g stroke-linejoin="miter" stroke-opacity="1.0" fill-opacity="1.0" stroke="rgb(0,0,0)" stroke-width="0.0" fill="rgb(0,0,0)" stroke-linecap="butt" stroke-miterlimit="10.0"><path d="M 306.1031,218.7582 l -0.3576,0.2214 l -0.4211,-0.6802 l 0.7787,0.4588 l -0.3576,0.2214 l 0.4211,0.6802 Z"/></g><g stroke-linejoin="miter" stroke-opacity="1.0" fill-opacity="0.0" stroke="rgb(0,0,0)" stroke-width="1.5999999999999996" fill="rgb(0,0,0)" stroke-linecap="butt" stroke-miterlimit="10.0"><path d="M 489.3048,303.9725 l 137.2963,-84.9929 "/></g><g stroke-linejoin="miter" stroke-opacity="1.0" fill-opacity="1.0" stroke="rgb(0,0,0)" stroke-width="0.0" fill="rgb(0,0,0)" stroke-linecap="butt" stroke-miterlimit="10.0"></g><g stroke-linejoin="miter" stroke-opacity="1.0" fill-opacity="1.0" stroke="rgb(0,0,0)" stroke-width="0.0" fill="rgb(0,0,0)" stroke-linecap="butt" stroke-miterlimit="10.0"></g><g stroke-linejoin="miter" stroke-opacity="1.0" fill-opacity="1.0" stroke="rgb(0,0,0)" stroke-width="0.0" fill="rgb(0,0,0)" stroke-linecap="butt" stroke-miterlimit="10.0"><path d="M 642.2460,209.2946 l -22.1450,5.4227 l 6.8577,4.0408 l 0.5590,7.9400 Z"/></g><g stroke-linejoin="miter" stroke-opacity="1.0" fill-opacity="1.0" stroke="rgb(0,0,0)" stroke-width="0.0" fill="rgb(0,0,0)" stroke-linecap="butt" stroke-miterlimit="10.0"><path d="M 626.9587,218.7582 l -0.3576,0.2214 l -0.4211,-0.6802 l 0.7787,0.4588 l -0.3576,0.2214 l 0.4211,0.6802 Z"/></g><g stroke-linejoin="miter" stroke-opacity="1.0" fill-opacity="0.0" stroke="rgb(0,0,0)" stroke-width="1.5999999999999996" fill="rgb(0,0,0)" stroke-linecap="butt" stroke-miterlimit="10.0"><path d="M 387.7005,188.7701 h 236.1455 "/></g><g stroke-linejoin="miter" stroke-opacity="1.0" fill-opacity="1.0" stroke="rgb(0,0,0)" stroke-width="0.0" fill="rgb(0,0,0)" stroke-linecap="butt" stroke-miterlimit="10.0"></g><g stroke-linejoin="miter" stroke-opacity="1.0" fill-opacity="1.0" stroke="rgb(0,0,0)" stroke-width="0.0" fill="rgb(0,0,0)" stroke-linecap="butt" stroke-miterlimit="10.0"></g><g stroke-linejoin="miter" stroke-opacity="1.0" fill-opacity="1.0" stroke="rgb(0,0,0)" stroke-width="0.0" fill="rgb(0,0,0)" stroke-linecap="butt" stroke-miterlimit="10.0"><path d="M 642.2460,188.7701 l -21.6834,-7.0454 l 3.7040,7.0454 l -3.7040,7.0454 Z"/></g><g stroke-linejoin="miter" stroke-opacity="1.0" fill-opacity="1.0" stroke="rgb(0,0,0)" stroke-width="0.0" fill="rgb(0,0,0)" stroke-linecap="butt" stroke-miterlimit="10.0"><path d="M 624.2666,188.7701 h -0.4206 v -0.8000 l 0.4206,0.8000 h -0.4206 v 0.8000 Z"/></g><g stroke-linejoin="miter" stroke-opacity="1.0" fill-opacity="0.0" stroke="rgb(0,0,0)" stroke-width="1.5999999999999996" fill="rgb(0,0,0)" stroke-linecap="butt" stroke-miterlimit="10.0"><path d="M 675.4011,433.6898 l 0.0000,-193.3647 "/></g><g stroke-linejoin="miter" stroke-opacity="1.0" fill-opacity="1.0" stroke="rgb(0,0,0)" stroke-width="0.0" fill="rgb(0,0,0)" stroke-linecap="butt" stroke-miterlimit="10.0"></g><g stroke-linejoin="miter" stroke-opacity="1.0" fill-opacity="1.0" stroke="rgb(0,0,0)" stroke-width="0.0" fill="rgb(0,0,0)" stroke-linecap="butt" stroke-miterlimit="10.0"></g><g stroke-linejoin="miter" stroke-opacity="1.0" fill-opacity="1.0" stroke="rgb(0,0,0)" stroke-width="0.0" fill="rgb(0,0,0)" stroke-linecap="butt" stroke-miterlimit="10.0"><path d="M 675.4011,221.9251 l -7.0454,21.6834 l 7.0454,-3.7040 l 7.0454,3.7040 Z"/></g><g stroke-linejoin="miter" stroke-opacity="1.0" fill-opacity="1.0" stroke="rgb(0,0,0)" stroke-width="0.0" fill="rgb(0,0,0)" stroke-linecap="butt" stroke-miterlimit="10.0"><path d="M 675.4011,239.9045 l -0.0000,0.4206 l -0.8000,-0.0000 l 0.8000,-0.4206 l -0.0000,0.4206 l 0.8000,0.0000 Z"/></g><g stroke-linejoin="miter" stroke-opacity="1.0" fill-opacity="0.0" stroke="rgb(0,0,0)" stroke-width="0.0" fill="rgb(0,0,0)" stroke-linecap="butt" stroke-miterlimit="10.0"><path d="M 708.5561,215.5080 v -53.4759 c 0.0000,-3.5441 -2.8730,-6.4171 -6.4171 -6.4171h -53.4759 c -3.5441,-0.0000 -6.4171,2.8730 -6.4171 6.4171v 53.4759 c -0.0000,3.5441 2.8730,6.4171 6.4171 6.4171h 53.4759 c 3.5441,0.0000 6.4171,-2.8730 6.4171 -6.4171Z"/></g><g stroke-linejoin="miter" stroke-opacity="1.0" fill-opacity="1.0" stroke="rgb(0,0,0)" stroke-width="0.0" fill="rgb(0,0,0)" stroke-linecap="butt" stroke-miterlimit="10.0"><path d="M 661.7281,198.8650 ZM 673.9025,197.3549 c -0.4182,0.9061 -1.3243,1.7658 -1.9981 1.7658c -1.1617,-0.0000 -1.7193,-1.0223 -2.3698 -3.1830l -1.6496,-5.5064 l -3.3224,8.4338 c -0.6273,0.0465 -1.2081,0.1394 -1.7425 0.2788l -0.5808,-0.2788 l 5.1346,-10.1066 l -0.3020,-0.9990 c -0.9526,-3.2062 -1.8587,-3.6941 -2.5092 -3.6941c -0.5808,-0.0000 -1.1849,0.2323 -1.6496 0.5808c -0.1696,-0.0558 -0.3462,-0.0976 -0.3950 -0.3950c 0.6041,-0.8829 1.3475,-1.6031 2.2537 -1.6031c 0.6970,-0.0000 1.9981,0.2556 2.8113 2.9971l 2.4860,8.2479 c 0.9061,3.0668 1.1849,3.8103 1.9284 3.8103c 0.4879,-0.0000 0.9526,-0.1162 1.4405 -0.7202c 0.2625,0.0558 0.3880,0.1626 0.4647 0.3717ZM 674.0651,198.8650 ZM 682.3595,199.0974 c -4.9952,-0.0000 -7.4347,-3.3967 -7.4347 -7.4347c 0.0000,-2.4233 0.9200,-4.6978 2.4628 -6.1104c 1.3708,-1.2546 3.0204,-1.9749 4.9952 -1.9749c 2.8577,-0.0000 3.9032,0.9293 5.0882 1.0455c 0.2323,1.2778 0.3950,2.3931 0.5111 3.6012c -0.2625,0.1394 -0.4879,0.2091 -0.7667 0.1162c -0.6041,-1.9981 -1.8819,-3.9032 -5.0882 -3.9032c -1.2081,-0.0000 -2.5557,0.6505 -3.7081 2.0678c -0.8480,1.0432 -1.3801,2.7114 -1.3801 4.7164c 0.0000,3.3921 2.1700,6.9236 5.2973 6.9236c 2.1607,-0.0000 3.7406,-0.7202 5.3902 -2.5325c 0.2556,-0.0000 0.4182,0.1394 0.5344 0.3485c -1.5799,2.0678 -3.6477,3.1365 -5.9013 3.1365Z"/></g><g stroke-linejoin="miter" stroke-opacity="1.0" fill-opacity="0.0" stroke="rgb(0,0,0)" stroke-width="0.0" fill="rgb(0,0,0)" stroke-linecap="butt" stroke-miterlimit="10.0"><path d="M 708.5561,493.5829 v -53.4759 c 0.0000,-3.5441 -2.8730,-6.4171 -6.4171 -6.4171h -53.4759 c -3.5441,-0.0000 -6.4171,2.8730 -6.4171 6.4171v 53.4759 c -0.0000,3.5441 2.8730,6.4171 6.4171 6.4171h 53.4759 c 3.5441,0.0000 6.4171,-2.8730 6.4171 -6.4171Z"/></g><g stroke-linejoin="miter" stroke-opacity="1.0" fill-opacity="1.0" stroke="rgb(0,0,0)" stroke-width="0.0" fill="rgb(0,0,0)" stroke-linecap="butt" stroke-miterlimit="10.0"><path d="M 655.3040,476.9399 ZM 667.4784,475.4297 c -0.4182,0.9061 -1.3243,1.7658 -1.9981 1.7658c -1.1617,-0.0000 -1.7193,-1.0223 -2.3698 -3.1830l -1.6496,-5.5064 l -3.3224,8.4338 c -0.6273,0.0465 -1.2081,0.1394 -1.7425 0.2788l -0.5808,-0.2788 l 5.1346,-10.1066 l -0.3020,-0.9990 c -0.9526,-3.2062 -1.8587,-3.6941 -2.5092 -3.6941c -0.5808,-0.0000 -1.1849,0.2323 -1.6496 0.5808c -0.1696,-0.0558 -0.3462,-0.0976 -0.3950 -0.3950c 0.6041,-0.8829 1.3475,-1.6031 2.2537 -1.6031c 0.6970,-0.0000 1.9981,0.2556 2.8113 2.9971l 2.4860,8.2479 c 0.9061,3.0668 1.1849,3.8103 1.9284 3.8103c 0.4879,-0.0000 0.9526,-0.1162 1.4405 -0.7202c 0.2625,0.0558 0.3880,0.1626 0.4647 0.3717ZM 667.6411,476.9399 ZM 672.0322,464.0685 v 5.4134 c 0.2556,0.0697 1.1849,0.1162 1.7658 0.1162c 2.2537,-0.0000 3.4618,-1.0223 3.4618 -3.5315c 0.0000,-2.9507 -1.6031,-3.4850 -3.2062 -3.4850c -1.6728,-0.0000 -2.0213,0.8132 -2.0213 1.4869ZM 672.0322,464.0685 ZM 670.0573,464.7887 c 0.0000,-1.9284 -0.3950,-2.0446 -2.0213 -2.1143c -0.1394,-0.1394 -0.1394,-0.6273 0.0000 -0.7667c 0.9293,0.0232 2.1445,0.0465 2.9971 0.0465c 0.9293,-0.0000 2.2932,-0.1626 3.1830 -0.1626c 4.2982,-0.0000 5.2043,2.4860 5.2043 3.8568c 0.0000,1.9749 -1.2778,4.7396 -5.5064 4.7396c -0.8132,-0.0000 -1.3708,-0.0697 -1.8819 -0.2323v 3.9497 c 0.0000,1.9284 0.5576,2.0213 2.3698 2.1143c 0.1394,0.1394 0.1394,0.6273 0.0000 0.7667c -1.1617,-0.0232 -2.5232,-0.0465 -3.3456 -0.0465c -0.8294,-0.0000 -1.9749,0.0232 -3.0204 0.0465c -0.1394,-0.1394 -0.1394,-0.6273 0.0000 -0.7667c 1.6263,-0.0697 2.0213,-0.1859 2.0213 -2.1143v -9.3167 ZM 680.2104,476.9399 ZM 694.7082,472.5488 c 0.0000,2.4163 -1.5799,4.6235 -4.4144 4.6235c -1.1849,-0.0000 -2.1143,-0.7202 -2.6254 -2.3931c -0.6273,1.6728 -1.3940,2.3931 -2.7183 2.3931c -2.0910,-0.0000 -3.9497,-1.6961 -3.9497 -4.7396c 0.0000,-2.7416 1.6263,-4.6467 4.2517 -5.7619c 0.1766,0.0929 0.2788,0.3183 0.3020 0.5344c -1.5102,0.9526 -2.6486,2.0446 -2.6486 4.8790c 0.0000,2.6022 0.6273,4.2285 2.3466 4.2285c 0.8596,-0.0000 1.3940,-0.6970 2.1143 -2.3466c -0.3020,-0.7667 -0.3485,-1.6263 -0.3485 -2.0910c 0.0000,-0.7202 0.2556,-1.5334 0.8596 -1.5334c 0.6273,-0.0000 0.6970,0.3020 0.6970 0.8596c 0.0000,0.5576 -0.2091,1.8355 -0.5576 2.6951c 0.6970,1.6031 1.5102,2.4163 2.4395 2.4163c 1.6728,-0.0000 2.3466,-0.8596 2.3466 -3.4153c 0.0000,-1.6961 -0.3950,-3.8568 -2.8113 -5.6922c 0.0232,-0.1882 0.0441,-0.4670 0.3485 -0.5344c 2.1840,1.0455 4.3679,3.1830 4.3679 5.8781Z"/></g><g stroke-linejoin="miter" stroke-opacity="1.0" fill-opacity="0.0" stroke="rgb(0,0,0)" stroke-width="0.0" fill="rgb(0,0,0)" stroke-linecap="butt" stroke-miterlimit="10.0"><path d="M 387.7005,215.5080 v -53.4759 c 0.0000,-3.5441 -2.8730,-6.4171 -6.4171 -6.4171h -53.4759 c -3.5441,-0.0000 -6.4171,2.8730 -6.4171 6.4171v 53.4759 c -0.0000,3.5441 2.8730,6.4171 6.4171 6.4171h 53.4759 c 3.5441,0.0000 6.4171,-2.8730 6.4171 -6.4171Z"/></g><g stroke-linejoin="miter" stroke-opacity="1.0" fill-opacity="1.0" stroke="rgb(0,0,0)" stroke-width="0.0" fill="rgb(0,0,0)" stroke-linecap="butt" stroke-miterlimit="10.0"><path d="M 340.7331,198.8650 ZM 352.9075,197.3549 c -0.4182,0.9061 -1.3243,1.7658 -1.9981 1.7658c -1.1617,-0.0000 -1.7193,-1.0223 -2.3698 -3.1830l -1.6496,-5.5064 l -3.3224,8.4338 c -0.6273,0.0465 -1.2081,0.1394 -1.7425 0.2788l -0.5808,-0.2788 l 5.1346,-10.1066 l -0.3020,-0.9990 c -0.9526,-3.2062 -1.8587,-3.6941 -2.5092 -3.6941c -0.5808,-0.0000 -1.1849,0.2323 -1.6496 0.5808c -0.1696,-0.0558 -0.3462,-0.0976 -0.3950 -0.3950c 0.6041,-0.8829 1.3475,-1.6031 2.2537 -1.6031c 0.6970,-0.0000 1.9981,0.2556 2.8113 2.9971l 2.4860,8.2479 c 0.9061,3.0668 1.1849,3.8103 1.9284 3.8103c 0.4879,-0.0000 0.9526,-0.1162 1.4405 -0.7202c 0.2625,0.0558 0.3880,0.1626 0.4647 0.3717ZM 353.0701,198.8650 ZM 367.5679,194.4739 c 0.0000,2.4163 -1.5799,4.6235 -4.4144 4.6235c -1.1849,-0.0000 -2.1143,-0.7202 -2.6254 -2.3931c -0.6273,1.6728 -1.3940,2.3931 -2.7183 2.3931c -2.0910,-0.0000 -3.9497,-1.6961 -3.9497 -4.7396c 0.0000,-2.7416 1.6263,-4.6467 4.2517 -5.7619c 0.1766,0.0929 0.2788,0.3183 0.3020 0.5344c -1.5102,0.9526 -2.6486,2.0446 -2.6486 4.8790c 0.0000,2.6022 0.6273,4.2285 2.3466 4.2285c 0.8596,-0.0000 1.3940,-0.6970 2.1143 -2.3466c -0.3020,-0.7667 -0.3485,-1.6263 -0.3485 -2.0910c 0.0000,-0.7202 0.2556,-1.5334 0.8596 -1.5334c 0.6273,-0.0000 0.6970,0.3020 0.6970 0.8596c 0.0000,0.5576 -0.2091,1.8355 -0.5576 2.6951c 0.6970,1.6031 1.5102,2.4163 2.4395 2.4163c 1.6728,-0.0000 2.3466,-0.8596 2.3466 -3.4153c 0.0000,-1.6961 -0.3950,-3.8568 -2.8113 -5.6922c 0.0232,-0.1882 0.0441,-0.4670 0.3485 -0.5344c 2.1840,1.0455 4.3679,3.1830 4.3679 5.8781Z"/></g><g stroke-linejoin="miter" stroke-opacity="1.0" fill-opacity="0.0" stroke="rgb(0,0,0)" stroke-width="0.0" fill="rgb(0,0,0)" stroke-linecap="butt" stroke-miterlimit="10.0"><path d="M 489.3048,359.8930 v -64.1711 c 0.0000,-3.5441 -2.8730,-6.4171 -6.4171 -6.4171h -64.1711 c -3.5441,-0.0000 -6.4171,2.8730 -6.4171 6.4171v 64.1711 c -0.0000,3.5441 2.8730,6.4171 6.4171 6.4171h 64.1711 c 3.5441,0.0000 6.4171,-2.8730 6.4171 -6.4171Z"/></g><g stroke-linejoin="miter" stroke-opacity="1.0" fill-opacity="1.0" stroke="rgb(0,0,0)" stroke-width="0.0" fill="rgb(0,0,0)" stroke-linecap="butt" stroke-miterlimit="10.0"><path d="M 426.9955,341.2675 ZM 443.2280,339.2539 c -0.5576,1.2081 -1.7658,2.3543 -2.6641 2.3543c -1.5489,-0.0000 -2.2924,-1.3630 -3.1598 -4.2440l -2.1994,-7.3418 l -4.4299,11.2450 c -0.8364,0.0620 -1.6109,0.1859 -2.3234 0.3717l -0.7745,-0.3717 l 6.8462,-13.4755 l -0.4027,-1.3321 c -1.2701,-4.2750 -2.4782,-4.9255 -3.3456 -4.9255c -0.7745,-0.0000 -1.5799,0.3098 -2.1994 0.7745c -0.2261,-0.0743 -0.4616,-0.1301 -0.5266 -0.5266c 0.8054,-1.1772 1.7967,-2.1375 3.0049 -2.1375c 0.9293,-0.0000 2.6641,0.3408 3.7483 3.9962l 3.3147,10.9972 c 1.2081,4.0891 1.5799,5.0804 2.5712 5.0804c 0.6505,-0.0000 1.2701,-0.1549 1.9206 -0.9603c 0.3501,0.0743 0.5173,0.2168 0.6196 0.4956ZM 443.4448,341.2675 ZM 449.2997,324.1056 v 7.2179 c 0.3408,0.0929 1.5799,0.1549 2.3543 0.1549c 3.0049,-0.0000 4.6157,-1.3630 4.6157 -4.7087c 0.0000,-3.9342 -2.1375,-4.6467 -4.2750 -4.6467c -2.2304,-0.0000 -2.6951,1.0842 -2.6951 1.9826ZM 449.2997,324.1056 ZM 446.6666,325.0659 c 0.0000,-2.5712 -0.5266,-2.7261 -2.6951 -2.8190c -0.1859,-0.1859 -0.1859,-0.8364 0.0000 -1.0223c 1.2391,0.0310 2.8593,0.0620 3.9962 0.0620c 1.2391,-0.0000 3.0575,-0.2168 4.2440 -0.2168c 5.7309,-0.0000 6.9391,3.3147 6.9391 5.1424c 0.0000,2.6331 -1.7038,6.3195 -7.3418 6.3195c -1.0842,-0.0000 -1.8277,-0.0929 -2.5092 -0.3098v 5.2663 c 0.0000,2.5712 0.7435,2.6951 3.1598 2.8190c 0.1859,0.1859 0.1859,0.8364 0.0000 1.0223c -1.5489,-0.0310 -3.3642,-0.0620 -4.4608 -0.0620c -1.1059,-0.0000 -2.6331,0.0310 -4.0272 0.0620c -0.1859,-0.1859 -0.1859,-0.8364 0.0000 -1.0223c 2.1685,-0.0929 2.6951,-0.2478 2.6951 -2.8190v -12.4222 ZM 460.2040,341.2675 ZM 462.0937,326.7697 c 0.0000,-1.8587 2.1375,-4.3989 5.5761 -4.3989c 2.5092,-0.0000 5.2353,1.3630 5.2353 4.7087c 0.0000,2.3543 -1.3321,3.7174 -3.0978 5.4212l -3.1288,3.0049 c -0.1549,0.1549 -2.2924,2.2614 -2.2924 3.7483h 5.5141 c 1.1152,-0.0000 1.6418,-0.7745 2.1685 -2.9739c 0.3098,-0.0620 0.7125,-0.0000 0.8984 0.1549c -0.0310,0.9293 -0.3408,3.2527 -0.7435 4.8945c 0.0000,-0.0000 -1.4250,-0.0620 -2.4163 -0.0620h -5.4212 c -0.9913,-0.0000 -2.5712,0.0620 -2.5712 0.0620c 0.0000,-1.8277 0.4956,-3.3147 3.5315 -6.4125l 2.2924,-2.2614 c 1.8277,-1.8587 2.5402,-3.4695 2.5402 -5.4521c 0.0000,-2.9739 -1.5799,-3.7483 -2.6951 -3.7483c -2.2614,-0.0000 -3.0668,1.1152 -3.0668 1.8897c 0.0000,0.2478 0.1859,0.5266 0.2478 0.7435c 0.0620,0.2168 0.1239,0.4027 0.1239 0.6505c 0.0000,0.6846 -0.9293,1.2391 -1.4560 1.2391c -0.6505,-0.0000 -1.2391,-0.5576 -1.2391 -1.2081Z"/></g><g stroke-linejoin="miter" stroke-opacity="1.0" fill-opacity="0.0" stroke="rgb(0,0,0)" stroke-width="0.0" fill="rgb(0,0,0)" stroke-linecap="butt" stroke-miterlimit="10.0"><path d="M 168.4492,359.8930 v -64.1711 c 0.0000,-3.5441 -2.8730,-6.4171 -6.4171 -6.4171h -64.1711 c -3.5441,-0.0000 -6.4171,2.8730 -6.4171 6.4171v 64.1711 c -0.0000,3.5441 2.8730,6.4171 6.4171 6.4171h 64.1711 c 3.5441,0.0000 6.4171,-2.8730 6.4171 -6.4171Z"/></g><g stroke-linejoin="miter" stroke-opacity="1.0" fill-opacity="1.0" stroke="rgb(0,0,0)" stroke-width="0.0" fill="rgb(0,0,0)" stroke-linecap="butt" stroke-miterlimit="10.0"><path d="M 114.5194,341.2675 ZM 130.7520,339.2539 c -0.5576,1.2081 -1.7658,2.3543 -2.6641 2.3543c -1.5489,-0.0000 -2.2924,-1.3630 -3.1598 -4.2440l -2.1994,-7.3418 l -4.4299,11.2450 c -0.8364,0.0620 -1.6109,0.1859 -2.3234 0.3717l -0.7745,-0.3717 l 6.8462,-13.4755 l -0.4027,-1.3321 c -1.2701,-4.2750 -2.4782,-4.9255 -3.3456 -4.9255c -0.7745,-0.0000 -1.5799,0.3098 -2.1994 0.7745c -0.2261,-0.0743 -0.4616,-0.1301 -0.5266 -0.5266c 0.8054,-1.1772 1.7967,-2.1375 3.0049 -2.1375c 0.9293,-0.0000 2.6641,0.3408 3.7483 3.9962l 3.3147,10.9972 c 1.2081,4.0891 1.5799,5.0804 2.5712 5.0804c 0.6505,-0.0000 1.2701,-0.1549 1.9206 -0.9603c 0.3501,0.0743 0.5173,0.2168 0.6196 0.4956ZM 130.9688,341.2675 ZM 132.8585,326.7697 c 0.0000,-1.8587 2.1375,-4.3989 5.5761 -4.3989c 2.5092,-0.0000 5.2353,1.3630 5.2353 4.7087c 0.0000,2.3543 -1.3321,3.7174 -3.0978 5.4212l -3.1288,3.0049 c -0.1549,0.1549 -2.2924,2.2614 -2.2924 3.7483h 5.5141 c 1.1152,-0.0000 1.6418,-0.7745 2.1685 -2.9739c 0.3098,-0.0620 0.7125,-0.0000 0.8984 0.1549c -0.0310,0.9293 -0.3408,3.2527 -0.7435 4.8945c 0.0000,-0.0000 -1.4250,-0.0620 -2.4163 -0.0620h -5.4212 c -0.9913,-0.0000 -2.5712,0.0620 -2.5712 0.0620c 0.0000,-1.8277 0.4956,-3.3147 3.5315 -6.4125l 2.2924,-2.2614 c 1.8277,-1.8587 2.5402,-3.4695 2.5402 -5.4521c 0.0000,-2.9739 -1.5799,-3.7483 -2.6951 -3.7483c -2.2614,-0.0000 -3.0668,1.1152 -3.0668 1.8897c 0.0000,0.2478 0.1859,0.5266 0.2478 0.7435c 0.0620,0.2168 0.1239,0.4027 0.1239 0.6505c 0.0000,0.6846 -0.9293,1.2391 -1.4560 1.2391c -0.6505,-0.0000 -1.2391,-0.5576 -1.2391 -1.2081Z"/></g><g stroke-linejoin="miter" stroke-opacity="1.0" fill-opacity="0.0" stroke="rgb(0,0,0)" stroke-width="0.0" fill="rgb(0,0,0)" stroke-linecap="butt" stroke-miterlimit="10.0"><path d="M 387.7005,493.5829 v -53.4759 c 0.0000,-3.5441 -2.8730,-6.4171 -6.4171 -6.4171h -53.4759 c -3.5441,-0.0000 -6.4171,2.8730 -6.4171 6.4171v 53.4759 c -0.0000,3.5441 2.8730,6.4171 6.4171 6.4171h 53.4759 c 3.5441,0.0000 6.4171,-2.8730 6.4171 -6.4171Z"/></g><g stroke-linejoin="miter" stroke-opacity="1.0" fill-opacity="1.0" stroke="rgb(0,0,0)" stroke-width="0.0" fill="rgb(0,0,0)" stroke-linecap="butt" stroke-miterlimit="10.0"><path d="M 340.7331,476.9399 ZM 352.9075,475.4297 c -0.4182,0.9061 -1.3243,1.7658 -1.9981 1.7658c -1.1617,-0.0000 -1.7193,-1.0223 -2.3698 -3.1830l -1.6496,-5.5064 l -3.3224,8.4338 c -0.6273,0.0465 -1.2081,0.1394 -1.7425 0.2788l -0.5808,-0.2788 l 5.1346,-10.1066 l -0.3020,-0.9990 c -0.9526,-3.2062 -1.8587,-3.6941 -2.5092 -3.6941c -0.5808,-0.0000 -1.1849,0.2323 -1.6496 0.5808c -0.1696,-0.0558 -0.3462,-0.0976 -0.3950 -0.3950c 0.6041,-0.8829 1.3475,-1.6031 2.2537 -1.6031c 0.6970,-0.0000 1.9981,0.2556 2.8113 2.9971l 2.4860,8.2479 c 0.9061,3.0668 1.1849,3.8103 1.9284 3.8103c 0.4879,-0.0000 0.9526,-0.1162 1.4405 -0.7202c 0.2625,0.0558 0.3880,0.1626 0.4647 0.3717ZM 353.0701,476.9399 ZM 367.5679,472.5488 c 0.0000,2.4163 -1.5799,4.6235 -4.4144 4.6235c -1.1849,-0.0000 -2.1143,-0.7202 -2.6254 -2.3931c -0.6273,1.6728 -1.3940,2.3931 -2.7183 2.3931c -2.0910,-0.0000 -3.9497,-1.6961 -3.9497 -4.7396c 0.0000,-2.7416 1.6263,-4.6467 4.2517 -5.7619c 0.1766,0.0929 0.2788,0.3183 0.3020 0.5344c -1.5102,0.9526 -2.6486,2.0446 -2.6486 4.8790c 0.0000,2.6022 0.6273,4.2285 2.3466 4.2285c 0.8596,-0.0000 1.3940,-0.6970 2.1143 -2.3466c -0.3020,-0.7667 -0.3485,-1.6263 -0.3485 -2.0910c 0.0000,-0.7202 0.2556,-1.5334 0.8596 -1.5334c 0.6273,-0.0000 0.6970,0.3020 0.6970 0.8596c 0.0000,0.5576 -0.2091,1.8355 -0.5576 2.6951c 0.6970,1.6031 1.5102,2.4163 2.4395 2.4163c 1.6728,-0.0000 2.3466,-0.8596 2.3466 -3.4153c 0.0000,-1.6961 -0.3950,-3.8568 -2.8113 -5.6922c 0.0232,-0.1882 0.0441,-0.4670 0.3485 -0.5344c 2.1840,1.0455 4.3679,3.1830 4.3679 5.8781Z"/></g><g stroke-linejoin="miter" stroke-opacity="1.0" fill-opacity="0.0" stroke="rgb(0,0,0)" stroke-width="0.0" fill="rgb(0,0,0)" stroke-linecap="butt" stroke-miterlimit="10.0"><path d="M 489.3048,637.9679 v -64.1711 c 0.0000,-3.5441 -2.8730,-6.4171 -6.4171 -6.4171h -64.1711 c -3.5441,-0.0000 -6.4171,2.8730 -6.4171 6.4171v 64.1711 c -0.0000,3.5441 2.8730,6.4171 6.4171 6.4171h 64.1711 c 3.5441,0.0000 6.4171,-2.8730 6.4171 -6.4171Z"/></g><g stroke-linejoin="miter" stroke-opacity="1.0" fill-opacity="1.0" stroke="rgb(0,0,0)" stroke-width="0.0" fill="rgb(0,0,0)" stroke-linecap="butt" stroke-miterlimit="10.0"><path d="M 434.1979,619.3423 ZM 450.4304,617.3288 c -0.5576,1.2081 -1.7658,2.3543 -2.6641 2.3543c -1.5489,-0.0000 -2.2924,-1.3630 -3.1598 -4.2440l -2.1994,-7.3418 l -4.4299,11.2450 c -0.8364,0.0620 -1.6109,0.1859 -2.3234 0.3717l -0.7745,-0.3717 l 6.8462,-13.4755 l -0.4027,-1.3321 c -1.2701,-4.2750 -2.4782,-4.9255 -3.3456 -4.9255c -0.7745,-0.0000 -1.5799,0.3098 -2.1994 0.7745c -0.2261,-0.0743 -0.4616,-0.1301 -0.5266 -0.5266c 0.8054,-1.1772 1.7967,-2.1375 3.0049 -2.1375c 0.9293,-0.0000 2.6641,0.3408 3.7483 3.9962l 3.3147,10.9972 c 1.2081,4.0891 1.5799,5.0804 2.5712 5.0804c 0.6505,-0.0000 1.2701,-0.1549 1.9206 -0.9603c 0.3501,0.0743 0.5173,0.2168 0.6196 0.4956ZM 450.6472,619.3423 ZM 456.5021,602.1805 v 7.2179 c 0.3408,0.0929 1.5799,0.1549 2.3543 0.1549c 3.0049,-0.0000 4.6157,-1.3630 4.6157 -4.7087c 0.0000,-3.9342 -2.1375,-4.6467 -4.2750 -4.6467c -2.2304,-0.0000 -2.6951,1.0842 -2.6951 1.9826ZM 456.5021,602.1805 ZM 453.8690,603.1408 c 0.0000,-2.5712 -0.5266,-2.7261 -2.6951 -2.8190c -0.1859,-0.1859 -0.1859,-0.8364 0.0000 -1.0223c 1.2391,0.0310 2.8593,0.0620 3.9962 0.0620c 1.2391,-0.0000 3.0575,-0.2168 4.2440 -0.2168c 5.7309,-0.0000 6.9391,3.3147 6.9391 5.1424c 0.0000,2.6331 -1.7038,6.3195 -7.3418 6.3195c -1.0842,-0.0000 -1.8277,-0.0929 -2.5092 -0.3098v 5.2663 c 0.0000,2.5712 0.7435,2.6951 3.1598 2.8190c 0.1859,0.1859 0.1859,0.8364 0.0000 1.0223c -1.5489,-0.0310 -3.3642,-0.0620 -4.4608 -0.0620c -1.1059,-0.0000 -2.6331,0.0310 -4.0272 0.0620c -0.1859,-0.1859 -0.1859,-0.8364 0.0000 -1.0223c 2.1685,-0.0929 2.6951,-0.2478 2.6951 -2.8190v -12.4222 Z"/></g><g stroke-linejoin="miter" stroke-opacity="1.0" fill-opacity="0.0" stroke="rgb(0,0,0)" stroke-width="0.0" fill="rgb(0,0,0)" stroke-linecap="butt" stroke-miterlimit="10.0"><path d="M 168.4492,637.9679 v -64.1711 c 0.0000,-3.5441 -2.8730,-6.4171 -6.4171 -6.4171h -64.1711 c -3.5441,-0.0000 -6.4171,2.8730 -6.4171 6.4171v 64.1711 c -0.0000,3.5441 2.8730,6.4171 6.4171 6.4171h 64.1711 c 3.5441,0.0000 6.4171,-2.8730 6.4171 -6.4171Z"/></g><g stroke-linejoin="miter" stroke-opacity="1.0" fill-opacity="1.0" stroke="rgb(0,0,0)" stroke-width="0.0" fill="rgb(0,0,0)" stroke-linecap="butt" stroke-miterlimit="10.0"><path d="M 121.7218,619.3423 ZM 137.9544,617.3288 c -0.5576,1.2081 -1.7658,2.3543 -2.6641 2.3543c -1.5489,-0.0000 -2.2924,-1.3630 -3.1598 -4.2440l -2.1994,-7.3418 l -4.4299,11.2450 c -0.8364,0.0620 -1.6109,0.1859 -2.3234 0.3717l -0.7745,-0.3717 l 6.8462,-13.4755 l -0.4027,-1.3321 c -1.2701,-4.2750 -2.4782,-4.9255 -3.3456 -4.9255c -0.7745,-0.0000 -1.5799,0.3098 -2.1994 0.7745c -0.2261,-0.0743 -0.4616,-0.1301 -0.5266 -0.5266c 0.8054,-1.1772 1.7967,-2.1375 3.0049 -2.1375c 0.9293,-0.0000 2.6641,0.3408 3.7483 3.9962l 3.3147,10.9972 c 1.2081,4.0891 1.5799,5.0804 2.5712 5.0804c 0.6505,-0.0000 1.2701,-0.1549 1.9206 -0.9603c 0.3501,0.0743 0.5173,0.2168 0.6196 0.4956Z"/></g></svg>